<?xml version="1.0" encoding="UTF-8" standalone="no"?>
<svg
   xmlns:dc="http://purl.org/dc/elements/1.1/"
   xmlns:cc="http://creativecommons.org/ns#"
   xmlns:rdf="http://www.w3.org/1999/02/22-rdf-syntax-ns#"
   xmlns:svg="http://www.w3.org/2000/svg"
   xmlns="http://www.w3.org/2000/svg"
   xmlns:sodipodi="http://sodipodi.sourceforge.net/DTD/sodipodi-0.dtd"
   xmlns:inkscape="http://www.inkscape.org/namespaces/inkscape"
   inkscape:version="1.0 (4035a4fb49, 2020-05-01)"
   sodipodi:docname="twitter-white.svg"
   id="svg4"
   version="1.1"
   width="511pt"
   viewBox="1 -47 511.999 511"
   height="511pt">
  <metadata
     id="metadata10">
    <rdf:RDF>
      <cc:Work
         rdf:about="">
        <dc:format>image/svg+xml</dc:format>
        <dc:type
           rdf:resource="http://purl.org/dc/dcmitype/StillImage" />
        <dc:title></dc:title>
      </cc:Work>
    </rdf:RDF>
  </metadata>
  <defs
     id="defs8" />
  <sodipodi:namedview
     inkscape:object-paths="false"
     inkscape:current-layer="svg4"
     inkscape:window-maximized="1"
     inkscape:window-y="-9"
     inkscape:window-x="-9"
     inkscape:cy="308.14848"
     inkscape:cx="176.91439"
     inkscape:zoom="1.2915851"
     showgrid="false"
     id="namedview6"
     inkscape:window-height="1051"
     inkscape:window-width="1920"
     inkscape:pageshadow="2"
     inkscape:pageopacity="0"
     guidetolerance="10"
     gridtolerance="10"
     objecttolerance="10"
     borderopacity="1"
     bordercolor="#666666"
     pagecolor="#ffffff" />
  <path
     id="path2"
     fill="#1da1f2"
     d="m161.019531 416.605469c193.21875 0 298.878907-160.074219 298.878907-298.878907 0-4.546874-.09375-9.074218-.296876-13.578124 20.507813-14.828126 38.335938-33.332032 52.398438-54.394532-18.820312 8.367188-39.078125 13.996094-60.324219 16.539063 21.6875-13.007813 38.339844-33.578125 46.191407-58.101563-20.296876 12.03125-42.773438 20.773438-66.703126 25.496094-19.167968-20.417969-46.460937-33.1875-76.679687-33.1875-58.007813 0-105.050781 47.042969-105.050781 105.03125 0 8.246094.921875 16.261719 2.722656 23.953125-87.304688-4.394531-164.722656-46.191406-216.527344-109.753906-9.019531 15.523437-14.222656 33.558593-14.222656 52.800781 0 36.441406 18.546875 68.617188 46.746094 87.4375-17.234375-.53125-33.421875-5.261719-47.574219-13.136719-.015625.441407-.015625.871094-.015625 1.339844 0 50.875 36.207031 93.351563 84.277344 102.976563-8.828125 2.402343-18.117188 3.695312-27.699219 3.695312-6.757813 0-13.34375-.664062-19.746094-1.894531 13.375 41.738281 52.15625 72.109375 98.132813 72.960937-35.953125 28.179688-81.246094 44.964844-130.46875 44.964844-8.46875 0-16.835938-.484375-25.058594-1.453125 46.488281 29.796875 101.695312 47.1875 161.023438 47.1875" />
  <path
     transform="matrix(0.75146627,0,0,0.75146627,1,-47.4995)"
     id="path12"
     d="M 183.49545,616.19172 C 153.75547,613.98294 120.769,607.48485 91.15122,598.00058 65.7008,589.85078 33.369919,575.26749 11.613636,562.12406 l -10.4522724,-6.31443 9.2909094,0.5368 c 56.744863,3.27851 107.530137,-7.37596 154.370637,-32.38612 13.62832,-7.27676 41.00496,-25.24395 41.10006,-26.97383 0.014,-0.25536 -3.71988,-0.69409 -8.29759,-0.97497 -51.86453,-3.18229 -100.129847,-38.91483 -119.175282,-88.22975 -1.464379,-3.79175 -2.555567,-6.97975 -2.424863,-7.08442 0.130704,-0.10468 3.895939,0.3071 8.367189,0.91508 14.40437,1.95863 39.410746,0.39255 51.377526,-3.21762 l 3.20657,-0.96737 -3.4841,-0.911 C 102.73713,387.95169 79.037144,373.40626 58.999719,349.57045 44.511926,332.33629 33.822157,310.38823 29.438001,288.87481 27.763153,280.65619 26.359429,268.98535 26.337659,263.09797 l -0.01342,-3.62855 7.161743,3.3737 c 14.357971,6.76362 29.21954,10.97492 45.180483,12.80275 12.185964,1.39552 12.379029,1.19267 4.436146,-4.66102 -3.755796,-2.76792 -10.316244,-8.51667 -14.578777,-12.775 C 48.88337,238.58873 36.25651,215.11226 30.16835,186.89748 c -2.352109,-10.90055 -2.971431,-34.50867 -1.218232,-46.43815 2.332957,-15.8744 6.979447,-30.61097 13.866229,-43.977412 l 3.145578,-6.105204 2.375476,2.659322 c 1.306511,1.462628 5.941045,6.687527 10.298963,11.610884 42.060846,47.51826 100.764996,86.9203 161.635606,108.48932 36.21203,12.83145 66.0909,18.95044 110.22338,22.57303 l 4.15217,0.34082 -0.50831,-2.46936 c -4.16221,-20.22 -3.73999,-45.03488 1.08799,-63.94421 4.02809,-15.77649 12.12249,-33.26053 21.52812,-46.50111 5.86025,-8.24966 17.84572,-21.08085 25.59075,-27.396512 37.19517,-30.330685 88.04028,-39.511439 132.84116,-23.986221 19.52559,6.766359 34.57591,15.86333 51.34529,31.034993 l 6.36813,5.7614 12.83605,-3.21159 c 22.78952,-5.701946 46.97202,-14.985652 65.50232,-25.146461 4.33888,-2.379161 8.0421,-4.172528 8.22937,-3.985259 1.42535,1.425357 -10.44552,25.43474 -17.43686,35.26683 -9.51562,13.38204 -27.39593,30.3517 -40.00156,37.96426 -1.67227,1.00989 -2.6642,1.96159 -2.2043,2.11489 1.18996,0.39665 19.10937,-2.58569 29.63342,-4.93193 11.44905,-2.55244 28.88031,-7.95772 39.74156,-12.32349 4.6955,-1.88739 8.6706,-3.2983 8.83355,-3.13535 0.16295,0.16295 -3.34369,5.12379 -7.79252,11.02409 -14.63179,19.40551 -31.26366,36.49684 -50.10589,51.49007 l -9.83366,7.82488 -0.42259,23.32235 c -0.67849,37.4446 -4.88213,66.66924 -14.50333,100.83038 -34.20676,121.45485 -118.91464,218.47502 -229.54666,262.91128 -38.77194,15.57307 -79.41053,24.63848 -124.26591,27.7205 -13.16552,0.90461 -45.33071,0.8532 -58.06819,-0.0928 z"
     style="fill:#ffffff;stroke:none;stroke-width:0.774242" />
  <path
     transform="matrix(0.75146627,0,0,0.75146627,1,-47.4995)"
     id="path14"
     d="M 178.46288,615.42942 C 145.34728,612.30103 109.60824,604.3485 78.998701,593.29696 58.357961,585.84464 29.378905,572.19288 12.000758,561.73484 l -8.5166671,-5.12527 15.4848481,0.5012 c 36.447907,1.17973 72.424781,-3.90318 104.217331,-14.72411 13.59641,-4.62769 30.63055,-12.02556 42.1672,-18.31308 17.31885,-9.43884 41.88361,-25.92843 40.59501,-27.25021 -0.21291,-0.2184 -4.56803,-0.79707 -9.67803,-1.28593 -17.86539,-1.70913 -33.41345,-6.06887 -48.63859,-13.63849 -27.05404,-13.45068 -48.940727,-34.76782 -62.444521,-60.81953 -4.472775,-8.62894 -8.906017,-19.137 -8.32066,-19.72236 0.152673,-0.15267 3.389162,0.10777 7.192194,0.57876 13.894237,1.72076 43.403867,-0.22299 52.594917,-3.46433 l 3.09697,-1.09219 -4.64546,-1.30091 C 116.62718,390.90377 97.666694,382.28926 85.166667,373.38924 76.144551,366.96551 61.658444,352.69558 54.821499,343.49692 40.648166,324.42764 31.434254,302.02194 28.345427,279.11439 c -1.234214,-9.15324 -2.120162,-18.96894 -1.712106,-18.96894 0.137948,0 3.224859,1.39369 6.859801,3.09708 8.825544,4.13579 23.145725,8.83979 32.942211,10.8211 9.660813,1.95388 22.602546,2.95458 22.602546,1.74771 0,-0.45471 -2.932025,-3.11624 -6.515614,-5.91451 -26.33228,-20.56174 -43.945991,-48.38342 -51.646207,-81.57761 -2.045027,-8.81573 -2.917542,-36.95401 -1.477761,-47.65726 1.927305,-14.32749 6.299952,-28.38289 13.320056,-42.815882 l 3.250344,-6.68255 2.759212,3.045028 c 1.517567,1.674766 7.446347,8.213524 13.175067,14.530574 31.646158,34.89616 71.202474,64.34084 116.559904,86.76412 47.62975,23.54665 94.41817,36.15486 149.63812,40.32341 l 6.94627,0.52438 -1.00098,-5.32969 c -3.0026,-15.98728 -2.96495,-38.41409 0.0915,-54.52659 3.37574,-17.79548 13.79365,-41.0724 24.84628,-55.51451 21.71293,-28.371564 50.99304,-46.775699 85.55973,-53.778925 7.67928,-1.555825 10.99889,-1.774205 26.58268,-1.748734 15.53587,0.02539 18.84465,0.253213 25.93712,1.785853 26.97857,5.82991 49.74803,17.906868 71.19242,37.760586 l 4.44425,4.11459 11.92674,-3.1024 c 23.94094,-6.227542 46.14996,-14.602471 64.87168,-24.462824 9.58442,-5.047926 9.5872,-5.048798 9.04372,-2.844768 -1.56435,6.34423 -12.08389,25.941352 -18.8467,35.110012 -5.70945,7.74058 -22.2643,24.03288 -30.28868,29.80833 -3.54991,2.555 -7.37151,5.45437 -8.49246,6.44305 l -2.03809,1.7976 5.10331,-0.45166 c 16.15933,-1.43012 46.15729,-9.11068 65.56646,-16.78738 3.09838,-1.22547 6.00242,-2.22813 6.45344,-2.22813 1.01105,0 -2.74997,5.29004 -12.38532,17.42046 -9.33675,11.75449 -31.85521,34.15549 -43.97408,43.7447 l -9.29567,7.3553 -0.50793,9.2189 c -0.27937,5.0704 -0.51139,13.08381 -0.5156,17.80758 -0.0471,52.82916 -14.89199,113.44736 -40.97244,167.30837 -51.10523,105.54189 -141.465,180.74473 -250.55475,208.52674 -21.81126,5.55469 -42.97949,9.13311 -67.22319,11.36384 -13.73994,1.26424 -59.82565,1.44836 -72.10787,0.28808 z"
     style="fill:#ffffff;stroke-width:0.774242" />
  <path
     transform="matrix(0.75146627,0,0,0.75146627,1,-47.4995)"
     id="path16"
     d="m 178.46288,615.42942 c -28.03679,-2.64859 -59.44035,-9.07765 -86.715153,-17.75265 -23.575922,-7.49854 -59.454686,-23.65971 -79.746969,-35.9211 l -8.5166671,-5.1461 15.4848481,0.5012 c 45.802436,1.48252 88.389041,-6.54749 128.108431,-24.15574 16.68986,-7.39889 39.61319,-20.71892 53.25786,-30.94649 5.41627,-4.05985 6.74692,-5.71915 4.58636,-5.71915 -4.64253,0 -19.57247,-2.00785 -26.78495,-3.60217 -39.45946,-8.72253 -74.21656,-35.50023 -92.945995,-71.6078 -4.473673,-8.62457 -8.910165,-19.13617 -8.323966,-19.72236 0.152673,-0.15267 3.389162,0.10895 7.192194,0.58139 13.76922,1.71052 43.464317,-0.24693 52.594917,-3.46696 l 3.09697,-1.09219 -4.64546,-1.30091 C 116.64389,390.90845 97.688791,382.2994 85.166667,373.3972 75.860263,366.7811 59.937145,350.87904 53.55602,341.82835 39.684834,322.15408 31.354714,301.43205 28.345427,279.11439 c -1.232851,-9.14313 -2.120282,-18.96894 -1.713208,-18.96894 0.137343,0 3.347018,1.43293 7.132612,3.18429 9.202561,4.25744 22.900795,8.75799 32.670502,10.73389 9.351854,1.89139 22.602546,2.95158 22.602546,1.80842 0,-0.42132 -3.043756,-3.17404 -6.763906,-6.11715 -22.697171,-17.95636 -38.354791,-40.20731 -47.351198,-67.29051 -5.383743,-16.20746 -5.889685,-19.87097 -5.880881,-42.58333 0.007,-18.07795 0.187825,-20.94781 1.773518,-28.14878 2.397827,-10.88905 6.481506,-22.817 11.150946,-32.570632 l 3.887797,-8.120916 2.816483,3.084885 c 1.549065,1.696687 7.345801,8.091883 12.881635,14.211553 40.927867,45.24431 100.080277,84.4877 157.945457,104.78552 20.99871,7.36588 34.51545,11.21075 52.26136,14.86585 17.32089,3.56757 51.7222,8.1554 61.15228,8.1554 h 2.09291 l -0.99829,-5.22614 c -2.96484,-15.52124 -2.90421,-38.39451 0.14449,-54.50571 3.72664,-19.69386 14.68332,-42.98742 27.83066,-59.1671 21.27515,-26.182117 49.63661,-43.372825 82.5627,-50.043665 7.67928,-1.555825 10.99889,-1.774205 26.58268,-1.748734 15.52709,0.02538 18.84866,0.253825 25.93712,1.783866 27.08502,5.846292 49.64748,17.815764 71.20579,37.774953 l 4.45763,4.12698 13.07472,-3.48609 c 24.2277,-6.459791 46.25237,-14.839885 64.48027,-24.533878 l 8.82219,-4.691837 -0.55271,2.240874 c -1.57634,6.391001 -12.08615,25.973641 -18.8626,35.146181 -6.2435,8.45113 -21.66382,23.46101 -31.85005,31.00229 -10.59678,7.84522 -10.39838,7.99508 6.64908,5.02253 18.44115,-3.21557 36.51678,-8.18605 53.94323,-14.83346 3.76257,-1.43525 7.1763,-2.60955 7.58606,-2.60955 1.03756,0 -2.97756,5.68089 -12.03878,17.03334 -9.72414,12.18301 -32.1561,34.49851 -44.36214,44.13182 l -9.31965,7.3553 -0.46311,13.54924 c -1.67825,49.10133 -3.84992,67.27581 -11.8881,99.49015 -7.25006,29.0559 -16.94274,55.37018 -30.80017,83.61818 -34.71431,70.76426 -85.77362,126.57635 -152.14913,166.3117 -11.12815,6.6618 -36.69201,19.24106 -49.78644,24.4985 -35.35061,14.19334 -76.18278,23.58764 -117.83928,27.11139 -10.95675,0.92684 -58.88492,0.88117 -68.90757,-0.0657 z"
     style="fill:#ffffff;stroke-width:0;stroke-miterlimit:4;stroke-dasharray:none;stroke:none;fill-rule:nonzero" />
</svg>
