<?xml version="1.0" encoding="UTF-8" standalone="no"?>
<svg
   xmlns:dc="http://purl.org/dc/elements/1.1/"
   xmlns:cc="http://creativecommons.org/ns#"
   xmlns:rdf="http://www.w3.org/1999/02/22-rdf-syntax-ns#"
   xmlns:svg="http://www.w3.org/2000/svg"
   xmlns="http://www.w3.org/2000/svg"
   xmlns:sodipodi="http://sodipodi.sourceforge.net/DTD/sodipodi-0.dtd"
   xmlns:inkscape="http://www.inkscape.org/namespaces/inkscape"
   inkscape:version="1.0 (4035a4fb49, 2020-05-01)"
   sodipodi:docname="upload.svg"
   id="svg7"
   version="1.1"
   width="464"
   viewBox="0 0 464 464.00089"
   height="464.00089">
  <metadata
     id="metadata13">
    <rdf:RDF>
      <cc:Work
         rdf:about="">
        <dc:format>image/svg+xml</dc:format>
        <dc:type
           rdf:resource="http://purl.org/dc/dcmitype/StillImage" />
      </cc:Work>
    </rdf:RDF>
  </metadata>
  <defs
     id="defs11" />
  <sodipodi:namedview
     inkscape:current-layer="svg7"
     inkscape:window-maximized="1"
     inkscape:window-y="-9"
     inkscape:window-x="-9"
     inkscape:cy="230.83724"
     inkscape:cx="232"
     inkscape:zoom="1.71875"
     showgrid="false"
     id="namedview9"
     inkscape:window-height="1051"
     inkscape:window-width="1920"
     inkscape:pageshadow="2"
     inkscape:pageopacity="0"
     guidetolerance="10"
     gridtolerance="10"
     objecttolerance="10"
     borderopacity="1"
     bordercolor="#666666"
     pagecolor="#ffffff" />
  <g
     transform="translate(-24,-23.999125)"
     id="Solid">
    <path
       id="path2"
       d="M 182.461,155.48 232,105.941 V 368 a 24,24 0 0 0 48,0 V 105.941 l 49.539,49.539 a 24,24 0 1 0 33.941,-33.941 l -90.509,-90.51 a 24,24 0 0 0 -33.942,0 l -90.509,90.51 a 24,24 0 1 0 33.941,33.941 z" />
    <path
       id="path4"
       d="m 464,232 a 24,24 0 0 0 -24,24 V 440 H 72 V 256 a 24,24 0 0 0 -48,0 v 192 a 40,40 0 0 0 40,40 h 384 a 40,40 0 0 0 40,-40 V 256 a 24,24 0 0 0 -24,-24 z" />
  </g>
  <path
     id="path838"
     d="m 225.6,366.78208 c -6.86149,-2.27407 -12.04867,-6.77937 -15.01491,-13.04113 l -1.85782,-3.92189 -0.15037,-133.96364 c -0.0827,-73.68 -0.33802,-133.963636 -0.56738,-133.963636 -0.22935,0 -12.20532,11.745489 -26.61326,26.101086 -28.34499,28.24202 -28.58888,28.44291 -36.26364,29.87018 -15.16246,2.81976 -29.81455,-11.83233 -26.9948,-26.9948 1.49266,-8.02637 -0.33553,-5.97381 51.82629,-58.18672 C 215.70882,6.892014 218.23355,4.4693679 222.10909,2.6451664 225.86699,0.8763361 226.63158,0.72814724 232,0.72814724 c 5.36842,0 6.13301,0.14818886 9.89091,1.91701916 3.87554,1.8242015 6.40027,4.2468476 52.14498,50.0363636 52.16182,52.21291 50.33362,50.16035 51.82628,58.18672 2.81976,15.16247 -11.83233,29.81456 -26.9948,26.9948 -7.67475,-1.42727 -7.91864,-1.62816 -36.26363,-29.87018 -14.40794,-14.355597 -26.38391,-26.101086 -26.61326,-26.101086 -0.22936,0 -0.48468,60.283636 -0.56738,133.963636 l -0.15037,133.96364 -1.85782,3.92189 c -2.41395,5.09588 -6.60325,9.279 -11.66477,11.64757 -3.25726,1.52426 -4.74103,1.85853 -8.86735,1.99772 -3.00755,0.10145 -5.87034,-0.13604 -7.28279,-0.60416 z"
     style="fill:#ffffff;stroke:#1be410;stroke-width:0" />
  <path
     id="path840"
     d="m 33.309091,463.16755 c -3.309078,-0.55399 -9.256879,-2.7318 -12.8,-4.68677 C 14.943453,455.40985 7.9500655,448.14333 4.9636096,442.32815 0.02888192,432.71932 0.43636364,442.95716 0.43636364,328.58269 V 227.05542 l 1.31744676,-3.2 C 5.7510441,214.14638 13.883366,208.55209 24,208.55209 c 10.116634,0 18.248956,5.59429 22.246189,15.30333 l 1.317447,3.2 0.155672,94.69091 0.15567,94.69091 H 232 416.12502 l 0.15567,-94.69091 0.15567,-94.69091 1.31745,-3.2 c 3.99724,-9.70904 12.12955,-15.30333 22.24619,-15.30333 10.11664,0 18.24895,5.59429 22.24619,15.30333 l 1.31745,3.2 v 101.23636 c 0,82.88382 -0.14202,101.81647 -0.78338,104.43637 -0.43086,1.76 -1.95861,5.65564 -3.395,8.65699 -4.48708,9.37579 -12.90855,16.74668 -23.45799,20.53162 l -3.78182,1.35684 -198.6909,0.0687 c -109.28,0.0378 -199.345459,-0.0408 -200.145459,-0.17478 z"
     style="fill:#ffffff;stroke:#1be410;stroke-width:0" />
</svg>
