<?xml version="1.0" encoding="UTF-8" standalone="no"?>
<svg
   xmlns:dc="http://purl.org/dc/elements/1.1/"
   xmlns:cc="http://creativecommons.org/ns#"
   xmlns:rdf="http://www.w3.org/1999/02/22-rdf-syntax-ns#"
   xmlns:svg="http://www.w3.org/2000/svg"
   xmlns="http://www.w3.org/2000/svg"
   xmlns:sodipodi="http://sodipodi.sourceforge.net/DTD/sodipodi-0.dtd"
   xmlns:inkscape="http://www.inkscape.org/namespaces/inkscape"
   inkscape:version="1.0 (4035a4fb49, 2020-05-01)"
   sodipodi:docname="retweet.svg"
   id="svg4"
   version="1.1"
   width="512pt"
   viewBox="0 -80 512.0007 512"
   height="512pt">
  <metadata
     id="metadata10">
    <rdf:RDF>
      <cc:Work
         rdf:about="">
        <dc:format>image/svg+xml</dc:format>
        <dc:type
           rdf:resource="http://purl.org/dc/dcmitype/StillImage" />
      </cc:Work>
    </rdf:RDF>
  </metadata>
  <defs
     id="defs8" />
  <sodipodi:namedview
     inkscape:current-layer="svg4"
     inkscape:window-maximized="1"
     inkscape:window-y="-9"
     inkscape:window-x="-9"
     inkscape:cy="339.78182"
     inkscape:cx="341.33333"
     inkscape:zoom="1.2890625"
     showgrid="false"
     id="namedview6"
     inkscape:window-height="1051"
     inkscape:window-width="1920"
     inkscape:pageshadow="2"
     inkscape:pageopacity="0"
     guidetolerance="10"
     gridtolerance="10"
     objecttolerance="10"
     borderopacity="1"
     bordercolor="#666666"
     pagecolor="#ffffff" />
  <path
     id="path2"
     d="m178 20c0-11.046875 8.953125-20 20-20h168c44.113281 0 80 35.890625 80 80v163c0 11.046875-8.953125 20-20 20s-20-8.953125-20-20v-163c0-22.054688-17.945312-40-40-40h-168c-11.046875 0-20-8.953125-20-20zm328.046875 242.761719c-7.863281-7.753907-20.527344-7.667969-28.285156.195312l-44.496094 45.109375c-1.882813 1.890625-4.371094 2.933594-7.011719 2.933594-.003906 0-.003906 0-.007812 0-2.636719 0-5.125-1.039062-7.007813-2.925781l-45.078125-45.195313c-7.800781-7.824218-20.464844-7.839844-28.285156-.039062-7.820312 7.800781-7.835938 20.464844-.035156 28.285156l45.078125 45.199219c9.441406 9.464843 21.988281 14.675781 35.328125 14.675781h.035156c13.351562-.007812 25.90625-5.238281 35.402344-14.785156l44.554687-45.167969c7.757813-7.863281 7.671875-20.527344-.191406-28.285156zm-194.046875 49.238281h-166c-22.054688 0-40-17.941406-40-40v-168c0-11.046875-8.953125-20-20-20s-20 8.953125-20 20v168c0 44.113281 35.886719 80 80 80h166c11.046875 0 20-8.953125 20-20s-8.953125-20-20-20zm-226.253906-272h.007812c2.636719 0 5.125 1.039062 7.007813 2.925781l45.078125 45.199219c3.90625 3.917969 9.035156 5.875 14.160156 5.875 5.109375 0 10.21875-1.945312 14.125-5.839844 7.820312-7.796875 7.835938-20.460937.035156-28.28125l-45.078125-45.199218c-9.449219-9.472657-21.996093-14.7343755-35.363281-14.679688-13.351562.0117188-25.90625 5.238281-35.402344 14.785156l-44.554687 45.171875c-7.757813 7.863281-7.671875 20.523438.195312 28.28125 7.859375 7.757813 20.523438 7.671875 28.28125-.191406l44.5-45.109375c1.878907-1.890625 4.367188-2.933594 7.007813-2.9375zm0 0" />
  <path
     transform="matrix(0.750001,0,0,0.750001,0,-80.00035)"
     id="path835"
     d="m 181.47335,574.80522 c -17.67338,-2.32693 -35.87845,-9.76 -50.44681,-20.59726 -6.71075,-4.99205 -17.34327,-15.82857 -22.34055,-22.76919 -9.085345,-12.61844 -15.843034,-28.48969 -18.846385,-44.26301 -1.315839,-6.91067 -1.403241,-14.81083 -1.403241,-126.83637 0,-97.96922 0.187601,-120.02504 1.042549,-122.56969 4.064904,-12.09874 17.128147,-20.41217 28.834367,-18.35016 8.91338,1.57007 16.72513,7.49843 20.42251,15.49873 l 1.67633,3.62718 0.38788,120.24243 0.38788,120.24242 1.82199,5.43031 c 5.8451,17.42081 17.61794,29.69659 34.15939,35.61868 l 6.68529,2.39344 119.07878,0.38788 119.07879,0.38787 4.4191,2.07142 c 20.90049,9.79692 20.86546,38.04867 -0.0593,47.86009 l -4.35976,2.04425 -117.91515,0.10046 c -64.85333,0.0552 -120.03396,-0.17851 -122.62362,-0.51948 z"
     style="fill:#ffffff;stroke:#1be410;stroke-width:0" />
  <path
     transform="matrix(0.750001,0,0,0.750001,0,-80.00035)"
     id="path837"
     d="M 22.144234,231.09208 C 13.546692,229.43667 6.6793038,223.98559 2.8206248,215.7537 1.1465706,212.18237 0.77699305,210.27161 0.77699305,205.18788 c 0,-10.94572 -0.29955964,-10.55152 36.08754595,-47.4881 17.562996,-17.82821 33.62646,-33.81293 35.696587,-35.52159 7.500973,-6.19123 16.13756,-10.54942 26.441832,-13.34307 7.589652,-2.05768 24.052312,-1.87514 31.833732,0.35297 7.90681,2.26402 13.68668,4.88534 19.93009,9.03881 6.80795,4.52903 71.75086,69.49859 74.78747,74.81814 8.78118,15.38297 -1.08213,35.22052 -18.93992,38.09284 -4.9015,0.78837 -11.26127,-0.1974 -15.75336,-2.44178 -1.94279,-0.97069 -15.61757,-14.00441 -36.09733,-34.40515 -18.13334,-18.06336 -33.95242,-33.21202 -35.15354,-33.66368 -3.00812,-1.13117 -7.84269,-1.02846 -10.85614,0.23064 -1.51713,0.63389 -14.838894,13.58765 -33.526601,32.60044 -17.055048,17.35172 -32.580086,32.54756 -34.500086,33.76852 -5.732125,3.64518 -12.459033,5.04435 -18.583039,3.86521 z"
     style="fill:#ffffff;stroke:#1be410;stroke-width:0" />
  <path
     transform="matrix(0.750001,0,0,0.750001,0,-80.00035)"
     id="path839"
     d="m 559.94169,455.52774 c -7.6843,-2.75245 -12.52058,-7.20324 -15.99103,-14.71642 l -1.69611,-3.67193 -0.38788,-116.75151 -0.38788,-116.75152 -1.822,-5.4303 c -5.84509,-17.42082 -17.61794,-29.6966 -34.15938,-35.61869 l -6.68529,-2.39343 -120.24242,-0.38788 -120.24243,-0.38788 -4.83631,-2.23381 c -5.61914,-2.59539 -11.12861,-8.05051 -13.63522,-13.5007 -2.60838,-5.6715 -2.41044,-15.39695 0.43114,-21.18306 2.68228,-5.46174 7.49034,-10.25772 12.99275,-12.96013 l 4.27189,-2.09806 h 122.18181 122.18182 l 8.72522,2.09037 c 20.91869,5.01165 37.24832,14.07927 52.3182,29.05158 15.44314,15.34316 25.66142,34.81139 29.86849,56.90654 1.31483,6.90534 1.40324,14.70153 1.40324,123.73333 v 116.36364 l -1.77132,4.38077 c -5.18302,12.81846 -20.16074,19.9851 -32.51729,15.55909 z"
     style="fill:#ffffff;stroke:#1be410;stroke-width:0" />
  <path
     transform="matrix(0.750001,0,0,0.750001,0,-80.00035)"
     id="path841"
     d="m 558.15758,573.57093 c -11.7066,-2.25534 -22.38613,-7.09706 -31.11554,-14.10666 -3.15312,-2.53191 -19.89625,-18.87262 -37.20696,-36.31266 -33.31958,-33.56854 -34.05132,-34.45585 -35.67985,-43.26536 -2.09983,-11.35901 5.50535,-24.10654 16.96108,-28.42956 3.54236,-1.33677 5.5816,-1.60057 10.24127,-1.32483 10.30139,0.6096 9.95243,0.3345 46.54545,36.69247 18.13333,18.01685 33.7322,33.14645 34.66415,33.62134 2.70034,1.37598 9.62072,1.05461 12.26918,-0.56975 1.28,-0.78505 16.76347,-15.94178 34.40772,-33.68163 36.66775,-36.86642 35.35683,-35.86702 47.04683,-35.86702 6.48259,0 7.33315,0.19048 11.89533,2.66396 8.98651,4.8722 13.67438,12.72479 13.69245,22.93604 0.0195,11.00031 0.33093,10.58988 -36.56643,48.18481 -17.79651,18.13297 -34.65035,34.69006 -37.45296,36.79355 -11.4921,8.6253 -22.62714,12.40341 -37.67748,12.78395 -5.54667,0.14025 -10.95758,0.0869 -12.02424,-0.11865 z"
     style="fill:#ffffff;stroke:#1be410;stroke-width:0" />
</svg>
