<?xml version="1.0" encoding="UTF-8" standalone="no"?>
<svg
   xmlns:dc="http://purl.org/dc/elements/1.1/"
   xmlns:cc="http://creativecommons.org/ns#"
   xmlns:rdf="http://www.w3.org/1999/02/22-rdf-syntax-ns#"
   xmlns:svg="http://www.w3.org/2000/svg"
   xmlns="http://www.w3.org/2000/svg"
   xmlns:sodipodi="http://sodipodi.sourceforge.net/DTD/sodipodi-0.dtd"
   xmlns:inkscape="http://www.inkscape.org/namespaces/inkscape"
   inkscape:version="1.0 (4035a4fb49, 2020-05-01)"
   sodipodi:docname="photo.svg"
   xml:space="preserve"
   style="enable-background:new 0 0 550.801 550.8;"
   viewBox="0 0 550.801 550.8"
   height="550.8px"
   width="550.801px"
   y="0px"
   x="0px"
   id="Capa_1"
   version="1.1"><metadata
   id="metadata41"><rdf:RDF><cc:Work
       rdf:about=""><dc:format>image/svg+xml</dc:format><dc:type
         rdf:resource="http://purl.org/dc/dcmitype/StillImage" /></cc:Work></rdf:RDF></metadata><defs
   id="defs39" /><sodipodi:namedview
   inkscape:current-layer="Capa_1"
   inkscape:window-maximized="1"
   inkscape:window-y="-9"
   inkscape:window-x="-9"
   inkscape:cy="324.2209"
   inkscape:cx="275.40051"
   inkscape:zoom="1.5976761"
   showgrid="false"
   id="namedview37"
   inkscape:window-height="1051"
   inkscape:window-width="1920"
   inkscape:pageshadow="2"
   inkscape:pageopacity="0"
   guidetolerance="10"
   gridtolerance="10"
   objecttolerance="10"
   borderopacity="1"
   bordercolor="#666666"
   pagecolor="#ffffff" />
<g
   id="g4">
	<path
   id="path2"
   d="M515.828,61.201H34.972C15.659,61.201,0,76.859,0,96.172v358.458C0,473.942,15.659,489.6,34.972,489.6h480.856   c19.314,0,34.973-15.658,34.973-34.971V96.172C550.801,76.859,535.143,61.201,515.828,61.201z M515.828,96.172V350.51l-68.92-62.66   c-10.359-9.416-26.289-9.04-36.186,0.866l-69.752,69.741L203.438,194.179c-10.396-12.415-29.438-12.537-39.99-0.271L34.972,343.219   V96.172H515.828z M367.201,187.972c0-26.561,21.523-48.086,48.084-48.086c26.562,0,48.086,21.525,48.086,48.086   c0,26.561-21.523,48.085-48.086,48.085C388.725,236.058,367.201,214.533,367.201,187.972z" />
</g>
<g
   id="g6">
</g>
<g
   id="g8">
</g>
<g
   id="g10">
</g>
<g
   id="g12">
</g>
<g
   id="g14">
</g>
<g
   id="g16">
</g>
<g
   id="g18">
</g>
<g
   id="g20">
</g>
<g
   id="g22">
</g>
<g
   id="g24">
</g>
<g
   id="g26">
</g>
<g
   id="g28">
</g>
<g
   id="g30">
</g>
<g
   id="g32">
</g>
<g
   id="g34">
</g>
<path
   id="path866"
   d="M 29.583101,488.81721 C 15.3259,486.40326 3.5792694,474.97594 0.99722918,461.0084 0.02998384,455.77609 0.02998384,95.023897 0.99722918,89.791586 3.2562249,77.571553 12.867619,66.873621 25.036882,63.034326 l 4.381363,-1.382282 H 275.40051 521.38278 l 4.40736,1.386677 c 4.22795,1.330233 10.04764,4.687945 13.49804,7.787795 4.93311,4.431919 9.27739,12.266892 10.51562,18.96507 0.96724,5.232311 0.96724,365.984504 0,371.216814 -1.23823,6.69818 -5.58251,14.53315 -10.51562,18.96507 -3.26902,2.9369 -9.14811,6.40891 -13.16594,7.77542 l -4.11355,1.39905 -244.73045,0.0856 C 142.67649,489.28066 31.213681,489.0933 29.583101,488.81721 Z M 377.40727,322.38094 c 33.29875,-33.23901 36.66914,-36.42273 40.39305,-38.1559 7.73395,-3.59951 16.05209,-3.57438 23.02346,0.0696 3.01059,1.57364 12.20278,9.58088 39.00873,33.98015 19.28849,17.55675 35.331,32.01524 35.65002,32.12999 0.35488,0.12766 0.58002,-49.2534 0.58002,-127.21602 V 95.764089 H 275.40051 34.738473 V 219.83634 343.90859 l 1.478571,-1.55055 c 0.813215,-0.8528 29.298204,-33.94134 63.29997,-73.53009 34.001766,-39.58875 63.262686,-73.47086 65.024266,-75.29358 3.84011,-3.97338 6.97127,-5.90146 11.92035,-7.3402 7.70024,-2.23852 17.58245,-0.0687 23.54649,5.17004 1.18857,1.04403 33.28436,39.10019 71.32398,84.56925 38.03963,45.46905 69.29393,82.68033 69.454,82.69172 0.16007,0.0114 16.6396,-16.29851 36.62117,-36.24424 z"
   style="fill:#ffffff;stroke:#1be410;stroke-width:0" /><path
   id="path868"
   d="m 408.71915,235.30224 c -17.99797,-2.77812 -32.67051,-15.05384 -38.65937,-32.34421 -2.64818,-7.6455 -3.11971,-18.04898 -1.17141,-25.84513 3.52769,-14.11612 12.7066,-25.6341 25.38315,-31.85154 7.64345,-3.74887 11.89476,-4.69933 21.01967,-4.69933 9.11244,0 13.38037,0.95168 20.96796,4.67553 12.69674,6.23133 21.91255,17.78071 25.43486,31.87534 1.9483,7.79615 1.47677,18.19963 -1.17141,25.84513 -6.56897,18.96519 -22.97858,31.40176 -43.04073,32.61987 -2.754,0.16722 -6.69722,0.0432 -8.76272,-0.27566 z"
   style="fill:#ffffff;stroke:#1be410;stroke-width:0" /></svg>
