<?xml version="1.0" encoding="UTF-8" standalone="no"?>
<svg
   xmlns:dc="http://purl.org/dc/elements/1.1/"
   xmlns:cc="http://creativecommons.org/ns#"
   xmlns:rdf="http://www.w3.org/1999/02/22-rdf-syntax-ns#"
   xmlns:svg="http://www.w3.org/2000/svg"
   xmlns="http://www.w3.org/2000/svg"
   xmlns:sodipodi="http://sodipodi.sourceforge.net/DTD/sodipodi-0.dtd"
   xmlns:inkscape="http://www.inkscape.org/namespaces/inkscape"
   inkscape:version="1.0 (4035a4fb49, 2020-05-01)"
   sodipodi:docname="icon-more.svg"
   id="svg13"
   xml:space="preserve"
   style="enable-background:new 0 0 50 50;"
   viewBox="0 0 50 50"
   y="0px"
   x="0px"
   version="1.1"><metadata
   id="metadata19"><rdf:RDF><cc:Work
       rdf:about=""><dc:format>image/svg+xml</dc:format><dc:type
         rdf:resource="http://purl.org/dc/dcmitype/StillImage" /></cc:Work></rdf:RDF></metadata><defs
   id="defs17" /><sodipodi:namedview
   inkscape:current-layer="svg13"
   inkscape:window-maximized="1"
   inkscape:window-y="-9"
   inkscape:window-x="-9"
   inkscape:cy="24.886364"
   inkscape:cx="25"
   inkscape:zoom="17.6"
   showgrid="false"
   id="namedview15"
   inkscape:window-height="1051"
   inkscape:window-width="1920"
   inkscape:pageshadow="2"
   inkscape:pageopacity="0"
   guidetolerance="10"
   gridtolerance="10"
   objecttolerance="10"
   borderopacity="1"
   bordercolor="#666666"
   pagecolor="#ffffff" />
<g
   id="Layer_1">
	<path
   id="path2"
   d="M25,1C11.767,1,1,11.767,1,25s10.767,24,24,24s24-10.767,24-24S38.233,1,25,1z M25,47C12.869,47,3,37.131,3,25   S12.869,3,25,3s22,9.869,22,22S37.131,47,25,47z" />
	<path
   id="path4"
   d="M11,21c-2.206,0-4,1.794-4,4s1.794,4,4,4s4-1.794,4-4S13.206,21,11,21z M11,27c-1.103,0-2-0.897-2-2s0.897-2,2-2   s2,0.897,2,2S12.103,27,11,27z" />
	<path
   id="path6"
   d="M25,21c-2.206,0-4,1.794-4,4s1.794,4,4,4s4-1.794,4-4S27.206,21,25,21z M25,27c-1.103,0-2-0.897-2-2s0.897-2,2-2   s2,0.897,2,2S26.103,27,25,27z" />
	<path
   id="path8"
   d="M35,25c0,2.206,1.794,4,4,4s4-1.794,4-4s-1.794-4-4-4S35,22.794,35,25z M41,25c0,1.103-0.897,2-2,2s-2-0.897-2-2   s0.897-2,2-2S41,23.897,41,25z" />
</g>
<g
   id="g11">
</g>
<path
   id="path844"
   d="M 10.616122,26.932521 C 9.598616,26.718046 8.8856594,25.676698 9.0693485,24.673295 9.297602,23.42646 10.648461,22.687507 11.761364,23.200696 c 1.010532,0.465984 1.468401,1.609359 1.030215,2.572622 -0.378761,0.832627 -1.327194,1.338005 -2.175457,1.159203 z"
   style="fill:#000000;stroke:#1be410;stroke-width:0" /><path
   id="path846"
   d="m 24.517045,26.89766 c -1.217371,-0.325274 -1.816043,-1.637157 -1.26132,-2.763959 0.286617,-0.5822 0.763753,-0.935403 1.449725,-1.073166 0.62286,-0.125088 1.467642,0.217738 1.855327,0.752921 0.838064,1.156915 0.275197,2.731184 -1.103964,3.087652 -0.408083,0.105476 -0.533833,0.105015 -0.939768,-0.0034 z"
   style="fill:#000000;stroke:#1be410;stroke-width:0" /><path
   id="path848"
   d="m 38.593518,26.929822 c -0.88668,-0.220911 -1.539661,-1.024622 -1.544815,-1.901413 -0.0032,-0.546482 0.147671,-0.934343 0.5205,-1.337997 0.762539,-0.825583 1.935238,-0.87583 2.757235,-0.118139 1.033402,0.952556 0.749727,2.631942 -0.543759,3.219115 -0.337154,0.153049 -0.877854,0.215994 -1.189161,0.138434 z"
   style="fill:#000000;stroke:#1be410;stroke-width:0" /><path
   id="path850"
   d=""
   style="fill:#000000;stroke:#1be410;stroke-width:0" /><circle
   r="2.7556818"
   cy="25.426136"
   cx="11.5625"
   id="path852"
   style="fill:#000000;stroke:#1be410;stroke-width:0" /><circle
   r="2.3579545"
   cy="25.02841"
   cx="24.97159"
   id="path854"
   style="fill:#000000;stroke:#1be410;stroke-width:0" /><ellipse
   ry="2.471591"
   rx="2.528409"
   cy="24.914772"
   cx="39.11932"
   id="path856"
   style="fill:#000000;stroke:#1be410;stroke-width:0" /><path
   id="path858"
   d="M 10.33312,28.919082 C 8.2628186,28.545536 6.7836287,26.54544 7.0690039,24.505487 c 0.216545,-1.547933 1.2710644,-2.80693 2.7593437,-3.294397 0.6397934,-0.209556 1.6180634,-0.220943 2.2455164,-0.02614 0.722923,0.224447 1.17125,0.494741 1.711918,1.032109 0.413383,0.410858 0.530987,0.571604 0.749419,1.02434 0.576351,1.194577 0.576351,2.322617 0,3.517194 -0.218432,0.452736 -0.336036,0.613481 -0.749419,1.02434 -0.535531,0.532261 -0.990871,0.808461 -1.683509,1.021181 -0.454771,0.139667 -1.32046,0.195922 -1.769153,0.114964 z"
   style="fill:#ffffff;stroke:#1be410;stroke-width:0" /><path
   id="path860"
   d="m 24.204545,28.889956 c -0.49913,-0.107496 -1.325973,-0.510714 -1.724969,-0.841199 -0.641377,-0.531246 -1.154783,-1.351027 -1.340016,-2.139666 -0.111196,-0.473423 -0.111196,-1.344759 0,-1.818182 0.326613,-1.390574 1.453834,-2.541712 2.873371,-2.934337 0.492788,-0.136298 1.482424,-0.135986 1.976543,6.24e-4 1.410077,0.389845 2.546137,1.550736 2.870966,2.933713 0.111196,0.473423 0.111196,1.344759 0,1.818182 -0.322008,1.370966 -1.466214,2.548386 -2.841519,2.924003 -0.490585,0.133986 -1.333592,0.160405 -1.814376,0.05686 z"
   style="fill:#ffffff;stroke:#1be410;stroke-width:0" /><path
   id="path862"
   d="m 38.352273,28.919876 c -0.831673,-0.151849 -1.53934,-0.532199 -2.168457,-1.165482 -1.209621,-1.21763 -1.48252,-2.930512 -0.719017,-4.512991 0.218432,-0.452736 0.336036,-0.613482 0.749418,-1.02434 0.540669,-0.537368 0.988996,-0.807662 1.711919,-1.032109 0.627453,-0.194807 1.605723,-0.18342 2.245516,0.02614 1.48828,0.487467 2.542799,1.746464 2.759344,3.294397 0.258951,1.85106 -0.934164,3.701546 -2.758095,4.277725 -0.509074,0.160816 -1.344769,0.223547 -1.820628,0.136664 z"
   style="fill:#ffffff;stroke:#1be410;stroke-width:0" /><path
   id="path864"
   d="M 23.356544,48.916428 C 17.70284,48.512041 12.407424,46.14136 8.3291477,42.188881 4.342891,38.325584 1.9196714,33.430968 1.1835793,27.755682 c -0.148219,-1.142771 -0.148219,-4.368593 0,-5.511364 C 2.0555255,15.521594 5.3162959,9.865704 10.648077,5.8279015 17.284352,0.80219528 26.245589,-0.36998034 33.959009,2.7787122 41.597132,5.8966677 47.095207,12.632415 48.572477,20.681818 48.872385,22.315969 48.919592,22.903236 48.919592,25 c 0,2.096764 -0.04721,2.684031 -0.347115,4.318182 -1.113891,6.06941 -4.575499,11.520668 -9.623613,15.155038 -1.483927,1.068346 -3.75985,2.292768 -5.454546,2.934483 -3.214132,1.217068 -6.785196,1.748521 -10.137774,1.508725 z m 2.865047,-1.928643 c 0.515625,-0.03116 1.244318,-0.09643 1.619318,-0.145053 8.342972,-1.08169 15.387632,-6.8819 18.041082,-14.854096 0.509897,-1.531968 0.839659,-3.027448 1.03362,-4.6875 0.108832,-0.931452 0.09197,-3.8918 -0.02751,-4.829545 C 46.21861,17.217082 43.981758,12.719935 40.244773,9.1153182 36.730874,5.725886 32.220547,3.6278939 27.290049,3.0893909 c -1.173611,-0.1281805 -3.406487,-0.1281805 -4.580098,0 C 17.781341,3.6276877 13.26778,5.7271839 9.7552273,9.1153182 6.0262438,12.712216 3.7529035,17.275209 3.1151169,22.443182 c -0.1434466,1.162345 -0.1435416,3.949938 -1.762e-4,5.113636 0.632788,5.136274 2.9097416,9.721157 6.5947667,13.279248 3.7778766,3.647745 8.7244566,5.834335 13.9057366,6.146902 1.111681,0.06706 1.562313,0.0679 2.606145,0.0048 z"
   style="fill:#ffffff;stroke:#1be410;stroke-width:0" /></svg>
