<?xml version="1.0" encoding="UTF-8" standalone="no"?>
<svg
   xmlns:dc="http://purl.org/dc/elements/1.1/"
   xmlns:cc="http://creativecommons.org/ns#"
   xmlns:rdf="http://www.w3.org/1999/02/22-rdf-syntax-ns#"
   xmlns:svg="http://www.w3.org/2000/svg"
   xmlns="http://www.w3.org/2000/svg"
   xmlns:sodipodi="http://sodipodi.sourceforge.net/DTD/sodipodi-0.dtd"
   xmlns:inkscape="http://www.inkscape.org/namespaces/inkscape"
   inkscape:version="1.0 (4035a4fb49, 2020-05-01)"
   height="438.82327"
   width="484.09143"
   sodipodi:docname="icon-heart.svg"
   xml:space="preserve"
   viewBox="0 0 484.09143 438.82327"
   y="0px"
   x="0px"
   id="Capa_1"
   version="1.1"><metadata
   id="metadata41"><rdf:RDF><cc:Work
       rdf:about=""><dc:format>image/svg+xml</dc:format><dc:type
         rdf:resource="http://purl.org/dc/dcmitype/StillImage" /></cc:Work></rdf:RDF></metadata><defs
   id="defs39" /><sodipodi:namedview
   inkscape:current-layer="Capa_1"
   inkscape:window-maximized="1"
   inkscape:window-y="-9"
   inkscape:window-x="-9"
   inkscape:cy="218.40166"
   inkscape:cx="242.16315"
   inkscape:zoom="1.814433"
   showgrid="false"
   id="namedview37"
   inkscape:window-height="1051"
   inkscape:window-width="1920"
   inkscape:pageshadow="2"
   inkscape:pageopacity="0"
   guidetolerance="10"
   gridtolerance="10"
   objecttolerance="10"
   borderopacity="1"
   bordercolor="#666666"
   pagecolor="#ffffff" />
<g
   transform="translate(-0.3368497,-22.996064)"
   id="g4">
	<path
   id="path2"
   d="m 343.611,22.543 c -22.613,0 -44.227,5.184 -64.238,15.409 C 265.751,44.911 253.237,54.157 242.5,65.127 231.762,54.157 219.249,44.911 205.627,37.952 185.615,27.727 164.002,22.543 141.388,22.543 63.427,22.543 0,85.97 0,163.932 c 0,55.219 29.163,113.866 86.678,174.314 48.022,50.471 106.816,92.543 147.681,118.95 l 8.141,5.261 8.141,-5.261 C 291.506,430.79 350.3,388.717 398.323,338.246 455.838,277.798 485,219.151 485,163.932 485,85.97 421.573,22.543 343.611,22.543 Z m 32.978,295.023 C 333.671,362.672 281.393,401.018 242.5,426.682 203.607,401.017 151.329,362.672 108.412,317.566 56.381,262.884 30,211.194 30,163.932 30,102.512 79.969,52.543 141.389,52.543 c 35.361,0 67.844,16.243 89.118,44.563 l 11.993,15.965 11.993,-15.965 c 21.274,-28.32 53.757,-44.563 89.118,-44.563 61.42,0 111.389,49.969 111.389,111.389 0,47.262 -26.382,98.952 -78.411,153.634 z" />
</g>
<g
   transform="translate(-0.3368497,-22.996064)"
   id="g6">
</g>
<g
   transform="translate(-0.3368497,-22.996064)"
   id="g8">
</g>
<g
   transform="translate(-0.3368497,-22.996064)"
   id="g10">
</g>
<g
   transform="translate(-0.3368497,-22.996064)"
   id="g12">
</g>
<g
   transform="translate(-0.3368497,-22.996064)"
   id="g14">
</g>
<g
   transform="translate(-0.3368497,-22.996064)"
   id="g16">
</g>
<g
   transform="translate(-0.3368497,-22.996064)"
   id="g18">
</g>
<g
   transform="translate(-0.3368497,-22.996064)"
   id="g20">
</g>
<g
   transform="translate(-0.3368497,-22.996064)"
   id="g22">
</g>
<g
   transform="translate(-0.3368497,-22.996064)"
   id="g24">
</g>
<g
   transform="translate(-0.3368497,-22.996064)"
   id="g26">
</g>
<g
   transform="translate(-0.3368497,-22.996064)"
   id="g28">
</g>
<g
   transform="translate(-0.3368497,-22.996064)"
   id="g30">
</g>
<g
   transform="translate(-0.3368497,-22.996064)"
   id="g32">
</g>
<g
   transform="translate(-0.3368497,-22.996064)"
   id="g34">
</g>
<path
   id="path866"
   d="m 239.40747,437.3219 c -1.2125,-0.80743 -8.77685,-5.82873 -16.80966,-11.15845 C 155.58715,381.70237 100.3016,333.84886 62.159297,287.2927 7.1905928,220.19839 -12.081287,152.92355 7.3861068,96.088816 11.833238,83.105496 16.858244,72.984642 24.234505,62.154504 47.721362,27.670102 83.706403,5.7829508 125.32224,0.66999579 c 8.01221,-0.984387 25.06599,-0.855488 33.34375,0.252025 30.14357,4.03302301 57.22516,16.88130521 79.35748,37.64945821 l 4.12736,3.872968 5.24196,-4.793188 C 269.90315,17.068016 295.769,4.9289788 325.66031,0.91971879 c 9.15275,-1.22764 26.01993,-1.226041 35.21083,0.0033 31.56254,4.22182101 59.67821,18.10082221 82.17302,40.56383421 22.07119,22.039981 35.87699,50.156663 40.32208,82.119317 1.07658,7.74113 0.92681,28.86921 -0.26567,37.47728 -4.58161,33.07334 -17.00499,63.53351 -39.838,97.67653 -32.22314,48.18441 -82.37324,96.78583 -151.22158,146.5517 -16.25223,11.74766 -48.82839,33.59392 -49.97062,33.51136 -0.2521,-0.0182 -1.4504,-0.69375 -2.6629,-1.50118 z m 13.22727,-40.26937 C 356.35425,326.71845 424.32626,253.6477 446.48984,188.6559 463.2017,139.65056 454.39625,94.154116 421.93603,61.789966 399.97151,39.890457 370.45482,28.383239 339.18937,29.530802 c -9.93071,0.364495 -16.47676,1.313443 -25.40941,3.683469 -14.02041,3.719927 -26.94693,10.151937 -38.63164,19.222424 -10.03543,7.790199 -14.59648,12.667491 -26.35364,28.180881 -3.56081,4.69843 -6.58742,8.49255 -6.7258,8.43137 -0.13837,-0.0612 -3.30916,-4.15337 -7.04621,-9.09375 C 226.07859,68.131099 221.4767,62.892299 214.9969,57.157814 199.4462,43.395791 180.00942,34.185645 159.21713,30.72649 151.77296,29.488025 137.58994,29.070561 129.98068,29.865943 116.42522,31.282871 104.16389,34.776596 92.254059,40.615709 62.749933,55.0809 41.090023,81.446766 33.05933,112.67143 c -4.470728,17.38293 -4.677018,38.24109 -0.562914,56.91664 12.855185,58.35479 60.518007,120.51455 142.703664,186.10786 21.35833,17.04632 66.02337,48.87681 67.44495,48.06457 0.34121,-0.19496 4.83659,-3.21355 9.98971,-6.70797 z"
   style="fill:#ffffff;stroke:#1be410;stroke-width:0" /></svg>
