<?xml version="1.0" encoding="UTF-8" standalone="no"?>
<svg
   xmlns:dc="http://purl.org/dc/elements/1.1/"
   xmlns:cc="http://creativecommons.org/ns#"
   xmlns:rdf="http://www.w3.org/1999/02/22-rdf-syntax-ns#"
   xmlns:svg="http://www.w3.org/2000/svg"
   xmlns="http://www.w3.org/2000/svg"
   xmlns:sodipodi="http://sodipodi.sourceforge.net/DTD/sodipodi-0.dtd"
   xmlns:inkscape="http://www.inkscape.org/namespaces/inkscape"
   inkscape:version="1.0 (4035a4fb49, 2020-05-01)"
   sodipodi:docname="icon-stars.svg"
   version="1.1"
   width="512"
   viewBox="0 0 512 512"
   height="512"
   enable-background="new 0 0 512 512"
   id="Capa_1">
  <metadata
     id="metadata17">
    <rdf:RDF>
      <cc:Work
         rdf:about="">
        <dc:format>image/svg+xml</dc:format>
        <dc:type
           rdf:resource="http://purl.org/dc/dcmitype/StillImage" />
      </cc:Work>
    </rdf:RDF>
  </metadata>
  <defs
     id="defs15" />
  <sodipodi:namedview
     inkscape:current-layer="Capa_1"
     inkscape:window-maximized="1"
     inkscape:window-y="-9"
     inkscape:window-x="-9"
     inkscape:cy="254.83636"
     inkscape:cx="256"
     inkscape:zoom="1.71875"
     showgrid="false"
     id="namedview13"
     inkscape:window-height="1051"
     inkscape:window-width="1920"
     inkscape:pageshadow="2"
     inkscape:pageopacity="0"
     guidetolerance="10"
     gridtolerance="10"
     objecttolerance="10"
     borderopacity="1"
     bordercolor="#666666"
     pagecolor="#ffffff" />
  <g
     id="g10">
    <path
       id="path2"
       d="m322 401c44.112 0 80 35.888 80 80 0 5.522 4.478 10 10 10s10-4.478 10-10c0-44.112 35.888-80 80-80 5.522 0 10-4.478 10-10s-4.478-10-10-10c-44.112 0-80-35.888-80-80 0-5.522-4.478-10-10-10s-10 4.478-10 10c0 44.112-35.888 80-80 80-5.522 0-10 4.478-10 10s4.478 10 10 10zm90-56.429c9.816 20.194 26.234 36.612 46.429 46.429-20.194 9.816-36.612 26.234-46.429 46.429-9.816-20.194-26.234-36.612-46.429-46.429 20.195-9.816 36.613-26.234 46.429-46.429z" />
    <path
       id="path4"
       d="m10 101c27.57 0 50 22.43 50 50 0 5.522 4.477 10 10 10s10-4.478 10-10c0-27.57 22.43-50 50-50 5.523 0 10-4.478 10-10s-4.477-10-10-10c-27.57 0-50-22.43-50-50 0-5.522-4.477-10-10-10s-10 4.478-10 10c0 27.57-22.43 50-50 50-5.523 0-10 4.478-10 10s4.477 10 10 10zm60-33.976c5.913 9.81 14.166 18.064 23.975 23.976-9.81 5.912-18.063 14.166-23.975 23.976-5.913-9.81-14.166-18.064-23.975-23.976 9.809-5.912 18.062-14.166 23.975-23.976z" />
    <circle
       id="circle6"
       r="10"
       cy="294"
       cx="279" />
    <path
       id="path8"
       d="m305.678 271.194c2.817 4.749 8.954 6.315 13.703 3.496 26.118-15.498 56.07-23.69 86.619-23.69 5.522 0 10-4.478 10-10s-4.478-10-10-10c-93.738 0-170-76.262-170-170 0-5.522-4.477-10-10-10s-10 4.478-10 10c0 93.738-76.262 170-170 170-5.523 0-10 4.478-10 10s4.477 10 10 10c93.738 0 170 76.262 170 170 0 5.522 4.477 10 10 10s10-4.478 10-10c0-30.549 8.192-60.501 23.69-86.619 2.818-4.75 1.253-10.885-3.496-13.703-4.753-2.821-10.886-1.253-13.703 3.496-6.764 11.398-12.282 23.445-16.498 35.931-18.953-55.876-63.24-100.157-119.118-119.105 55.884-18.95 100.175-63.241 119.125-119.125 18.948 55.878 63.229 100.165 119.104 119.118-12.485 4.216-24.532 9.734-35.931 16.498-4.748 2.819-6.314 8.953-3.495 13.703z" />
  </g>
  <path
     id="path842"
     d="m 221.09091,429.134 c -3.9793,-2.39455 -4.51915,-3.9628 -5.01544,-14.56969 C 215.83542,409.43394 215.34967,402.88 214.99603,400 213.27985,386.02403 208.71976,368.76567 203.3063,355.75845 185.02516,311.83332 148.70869,277.11237 104.14545,260.95411 86.869622,254.69004 65.674604,250.76573 49.109693,250.76413 c -4.096506,-4.1e-4 -5.45696,-0.24246 -7.532952,-1.34027 -5.515057,-2.91643 -6.872185,-10.38167 -2.701621,-14.86096 2.528484,-2.71566 4.160782,-3.11153 14.900562,-3.61371 17.06016,-0.79772 29.805513,-3.13284 45.715227,-8.37563 C 133.76903,211.27774 163.11338,189.68258 184.51831,160 c 18.86041,-26.15406 30.2811,-59.17598 31.39073,-90.763636 0.35469,-10.096784 1.09998,-13.118132 3.79534,-15.386137 4.06395,-3.419578 9.36857,-3.220907 13.07933,0.489854 2.43036,2.430354 3.13637,5.19152 3.14032,12.281666 0.002,3.201961 0.39514,9.223779 0.87414,13.381818 3.77037,32.729985 16.08554,62.173395 36.86673,88.141885 9.21877,11.51992 24.3675,25.44542 36.59459,33.63964 27.2627,18.27065 55.56282,27.6456 88.03756,29.1641 12.39427,0.57955 13.87932,1.14387 16.46915,6.25828 1.77754,3.51028 0.85239,7.77915 -2.33091,10.75551 -2.40011,2.24409 -4.32737,2.8004 -9.70953,2.80265 -10.35073,0.004 -26.51746,2.14486 -37.92576,5.02154 -14.14634,3.56709 -25.62115,8.00982 -39.6723,15.36002 -5.99159,3.13422 -9.49753,4.63463 -10.82955,4.63463 -3.14013,0 -6.83618,-2.30021 -8.37656,-5.2131 -2.66439,-5.03846 -1.12775,-9.73915 4.32366,-13.22638 4.79482,-3.06721 22.18069,-11.37639 29.11076,-13.91282 3.28581,-1.20262 5.77308,-2.3777 5.52728,-2.61127 -0.24581,-0.23359 -3.06511,-1.38797 -6.26511,-2.56529 -8.19474,-3.01497 -24.38262,-11.04196 -32.29091,-16.01191 -36.04836,-22.65452 -64.08109,-56.86695 -78.04534,-95.25013 -1.07506,-2.95499 -2.08791,-5.37681 -2.25077,-5.38182 -0.16286,-0.005 -0.91977,1.75817 -1.68201,3.91817 -6.5923,18.68085 -19.13173,40.41584 -32.70353,56.68608 -21.37132,25.62051 -51.32792,46.7132 -80.95471,57.00088 -2.16,0.75005 -3.92727,1.52588 -3.92727,1.72409 0,0.19819 2.02909,1.09785 4.50909,1.99923 31.31573,11.38201 61.16326,32.87 82.56122,59.4379 11.2888,14.01626 23.89472,36.00449 29.53401,51.51546 1.25067,3.44 2.42815,6.253 2.61663,6.25112 0.18848,-0.002 1.22681,-2.4237 2.30741,-5.38181 4.43225,-12.1332 13.23407,-29.63499 16.36841,-32.5474 3.63538,-3.37798 8.80436,-3.44435 12.70387,-0.16312 2.28451,1.92228 3.7765,5.7343 3.28604,8.39576 -0.20916,1.135 -1.90832,4.84644 -3.77591,8.24764 -12.67753,23.08807 -19.66592,48.18129 -20.88157,74.97963 -0.44358,9.7784 -0.77095,11.20089 -3.19282,13.87346 -3.00491,3.31598 -7.76463,3.96142 -11.70911,1.58781 z"
     style="fill:#ffffff;stroke:#1be410;stroke-width:0" />
  <path
     id="path844"
     d="M 65.163636,159.17037 C 61.681844,157.07519 60.668055,154.87519 60.15961,148.31124 59.55545,140.5116 58.263104,135.66227 54.97925,128.87273 47.004699,112.38491 32.06687,102.51222 12.425837,100.74836 5.7155834,100.14576 3.2889962,98.916742 1.4958265,95.21255 0.01532451,92.15424 -0.00939619,90.026618 1.3995254,86.924259 3.1770178,83.010327 5.1800111,82.011468 12.985897,81.146321 20.913181,80.267712 24.166813,79.516515 29.46076,77.342602 44.934282,70.988536 56.071551,57.178789 59.383441,40.239728 c 0.459107,-2.34815 0.840489,-5.751787 0.847518,-7.563637 0.02572,-6.636922 3.365038,-10.61363 9.258263,-11.025498 2.673117,-0.18682 3.583994,0.01107 5.220916,1.13428 3.853027,2.643827 5.240343,5.82669 5.284579,12.124218 0.04038,5.745174 2.524143,14.255099 5.943506,20.363636 8.52882,15.236355 23.349237,24.552768 41.222547,25.913327 5.96045,0.453719 7.58076,1.033635 9.95242,3.562001 3.31996,3.539317 3.25532,8.801786 -0.15583,12.686872 -2.10098,2.39289 -3.93356,3.004813 -10.41191,3.476713 -6.57296,0.47878 -11.51278,1.73665 -17.23277,4.3881 -6.40762,2.97019 -10.838679,6.09569 -15.384738,10.85181 -8.794845,9.20122 -12.894365,18.43881 -13.953885,31.44274 -0.265362,3.25685 -0.86684,6.66049 -1.336623,7.56363 -2.663558,5.12064 -8.663121,6.90728 -13.473798,4.01245 z m 7.523375,-47.52991 c 3.267229,-5.07063 10.173934,-12.195992 16.140736,-16.651736 2.824739,-2.109393 5.127598,-3.988421 5.117463,-4.175627 -0.01012,-0.1872 -1.777408,-1.513292 -3.927273,-2.946863 C 85.001379,84.5211 76.354025,75.874513 73.006493,70.856303 c -1.433571,-2.149034 -2.775389,-3.850852 -2.981824,-3.781819 -0.206429,0.06903 -1.926313,2.220061 -3.821964,4.780061 -5.270446,7.117529 -10.441699,11.995398 -19.564744,18.454767 -0.979146,0.693265 -0.704344,1.007645 3.2,3.660905 5.450899,3.704238 13.343997,11.589563 17.028372,17.011603 1.576483,2.32 3.016483,4.21589 3.2,4.21309 0.183517,-0.003 1.362822,-1.6023 2.620678,-3.55445 z"
     style="fill:#ffffff;stroke:#1be410;stroke-width:0" />
  <path
     id="path846"
     d="m 275.17116,302.89071 c -3.67871,-1.60235 -6.58898,-7.01076 -5.73116,-10.65073 1.49417,-6.34018 8.372,-9.53862 14.16091,-6.58534 4.11939,2.10156 6.13368,7.30182 4.41843,11.407 -2.33904,5.59811 -7.74629,8.05131 -12.84818,5.82907 z"
     style="fill:#ffffff;stroke:#1be410;stroke-width:0" />
  <path
     id="path848"
     d="m 407.20789,489.3645 c -3.59492,-2.19212 -4.45718,-4.20483 -4.98501,-11.63604 -1.68804,-23.76555 -11.08056,-43.23476 -27.69799,-57.41353 -13.91224,-11.87057 -32.93564,-19.41939 -48.99762,-19.44311 -5.07282,-0.008 -8.00689,-0.9078 -10.24173,-3.14265 -3.90009,-3.90008 -3.90009,-9.59462 0,-13.4947 2.23484,-2.23485 5.16891,-3.13517 10.24173,-3.14265 8.70546,-0.0129 21.13605,-3.0289 30.25047,-7.33969 27.39873,-12.9586 44.56479,-38.40398 46.34364,-68.69553 0.41756,-7.11051 1.39465,-9.76667 4.37285,-11.88734 2.82055,-2.0084 7.72467,-2.20093 10.36465,-0.40691 3.63704,2.4716 4.44527,4.32833 4.89202,11.23839 1.77562,27.46451 14.80186,50.31964 36.72183,64.43015 11.94479,7.68921 24.17031,11.64403 38.98962,12.61271 7.77186,0.50801 9.82871,1.2367 12.17547,4.31347 2.79802,3.66838 2.67448,8.30732 -0.31181,11.70851 -2.36921,2.69838 -5.47355,3.66495 -13.0351,4.05859 -27.67456,1.44071 -53.19283,18.40772 -65.99327,43.8787 -4.96508,9.87979 -7.74855,20.61409 -8.54674,32.96003 -0.44534,6.88829 -1.26316,8.78144 -4.8326,11.18689 -2.52443,1.70121 -7.1065,1.80252 -9.71041,0.21471 z m 8.53247,-58.07355 c 4.67558,-8.51541 15.84347,-21.55003 24.11419,-28.14491 3.48843,-2.7816 13.0056,-8.95732 16.14545,-10.47683 2.4716,-1.19612 3.56061,-2.26921 2.30286,-2.26921 -0.93093,0 -10.94497,-6.0321 -15.033,-9.05534 -11.65277,-8.61764 -21.0029,-19.1994 -28.46105,-32.21005 -2.0453,-3.56799 -2.94267,-4.67617 -3.29799,-4.07272 -0.26848,0.45596 -1.89622,3.23748 -3.61722,6.18115 -4.44274,7.59907 -9.08024,13.58803 -15.45349,19.95696 -7.76593,7.76067 -14.46679,12.67261 -25.65015,18.80234 l -1.92824,1.05689 4.70291,2.51282 c 16.11766,8.61185 29.77894,22.08244 39.24449,38.69669 3.49082,6.1272 2.99142,6.19765 6.93124,-0.97779 z"
     style="fill:#ffffff;stroke:#1be410;stroke-width:0" />
</svg>
