<?xml version="1.0" encoding="UTF-8" standalone="no"?>
<svg
   xmlns:dc="http://purl.org/dc/elements/1.1/"
   xmlns:cc="http://creativecommons.org/ns#"
   xmlns:rdf="http://www.w3.org/1999/02/22-rdf-syntax-ns#"
   xmlns:svg="http://www.w3.org/2000/svg"
   xmlns="http://www.w3.org/2000/svg"
   xmlns:sodipodi="http://sodipodi.sourceforge.net/DTD/sodipodi-0.dtd"
   xmlns:inkscape="http://www.inkscape.org/namespaces/inkscape"
   inkscape:version="1.0 (4035a4fb49, 2020-05-01)"
   sodipodi:docname="icon-lists.svg"
   xml:space="preserve"
   style="enable-background:new 0 0 32 32;"
   viewBox="0 0 32 32"
   y="0px"
   x="0px"
   id="Icons"
   version="1.1"><metadata
   id="metadata17"><rdf:RDF><cc:Work
       rdf:about=""><dc:format>image/svg+xml</dc:format><dc:type
         rdf:resource="http://purl.org/dc/dcmitype/StillImage" /></cc:Work></rdf:RDF></metadata><defs
   id="defs15" /><sodipodi:namedview
   inkscape:current-layer="Icons"
   inkscape:window-maximized="1"
   inkscape:window-y="-9"
   inkscape:window-x="-9"
   inkscape:cy="15.927273"
   inkscape:cx="16"
   inkscape:zoom="27.5"
   showgrid="false"
   id="namedview13"
   inkscape:window-height="1051"
   inkscape:window-width="1920"
   inkscape:pageshadow="2"
   inkscape:pageopacity="0"
   guidetolerance="10"
   gridtolerance="10"
   objecttolerance="10"
   borderopacity="1"
   bordercolor="#666666"
   pagecolor="#ffffff" />
<style
   id="style2"
   type="text/css">
	.st0{fill:none;stroke:#000000;stroke-width:2;stroke-linecap:round;stroke-linejoin:round;stroke-miterlimit:10;}
</style>
<path
   id="path4"
   d="M24,28H8c-2.2,0-4-1.8-4-4V8c0-2.2,1.8-4,4-4h16c2.2,0,4,1.8,4,4v16C28,26.2,26.2,28,24,28z"
   class="st0" />
<line
   id="line6"
   y2="16"
   x2="22"
   y1="16"
   x1="10"
   class="st0" />
<line
   id="line8"
   y2="12"
   x2="22"
   y1="12"
   x1="10"
   class="st0" />

<line
   style="fill:none;stroke:#000000;stroke-width:2;stroke-linecap:round;stroke-linejoin:round;stroke-miterlimit:10"
   class="st0"
   x1="10"
   y1="20"
   x2="22"
   y2="20"
   id="line6-6" /><path
   id="path901"
   d="M 9.6897956,20.925966 C 9.5991832,20.898033 9.4574457,20.817316 9.3748235,20.746594 8.9210094,20.358146 8.9207816,19.642049 9.3743486,19.253812 9.6675106,19.002877 9.2371465,19.018182 16,19.018182 c 6.762853,0 6.332489,-0.0153 6.625651,0.23563 0.574935,0.492123 0.38334,1.462244 -0.330663,1.67428 -0.264004,0.0784 -12.3505803,0.07636 -12.6051924,-0.0021 z"
   style="fill:#ffffff;stroke:#1be410;stroke-width:0" /><path
   id="path903"
   d="M 9.6897956,16.925966 C 9.5991832,16.898033 9.4574457,16.817316 9.3748235,16.746594 8.9210094,16.358146 8.9207816,15.642049 9.3743486,15.253812 9.6675106,15.002877 9.2371465,15.018182 16,15.018182 c 6.762853,0 6.332489,-0.0153 6.625651,0.23563 0.574935,0.492123 0.38334,1.462244 -0.330663,1.67428 -0.264004,0.0784 -12.3505803,0.07636 -12.6051924,-0.0021 z"
   style="fill:#ffffff;stroke:#1be410;stroke-width:0" /><path
   id="path905"
   d="M 9.6897956,12.925966 C 9.5991832,12.898033 9.4574457,12.817316 9.3748235,12.746594 8.9210094,12.358146 8.9207816,11.642049 9.3743486,11.253812 9.6675106,11.002877 9.2371465,11.018182 16,11.018182 c 6.762853,0 6.332489,-0.0153 6.625651,0.23563 0.574935,0.492123 0.38334,1.462244 -0.330663,1.67428 -0.264004,0.0784 -12.3505803,0.07636 -12.6051924,-0.0021 z"
   style="fill:#ffffff;stroke:#1be410;stroke-width:0" /><path
   id="path907"
   d="M 7.2741185,28.924133 C 6.5575958,28.812789 5.7757641,28.504058 5.1923684,28.102089 4.8344742,27.855495 4.2917271,27.337928 4.0416306,27.004738 3.4217504,26.178906 3.1089343,25.31941 3.0340725,24.236364 3.0091463,23.875748 3.0008825,20.942972 3.0096864,15.581818 3.021912,8.1369978 3.0280532,7.4474076 3.0846557,7.1636364 3.2869135,6.1496353 3.7205366,5.2997663 4.3979173,4.5897408 5.1195844,3.8332947 5.9743068,3.3514535 7.0029535,3.1211774 L 7.3818182,3.0363636 H 16 24.618182 l 0.378865,0.084814 c 1.020877,0.2285369 1.866884,0.7013958 2.576299,1.4399734 0.703984,0.7329229 1.136319,1.5713344 1.341998,2.6024856 0.0566,0.2837712 0.06274,0.9733614 0.07497,8.4181814 0.0088,5.361154 5.42e-4,8.29393 -0.02438,8.654546 -0.09423,1.363219 -0.582254,2.427029 -1.535706,3.347569 -0.748892,0.72304 -1.692855,1.185792 -2.739313,1.342872 -0.524826,0.07878 -16.9088094,0.07627 -17.4167905,-0.0027 z M 24.745455,26.931696 c 1.119637,-0.321155 1.947274,-1.176905 2.196037,-2.270629 C 26.994349,24.428668 27,23.592224 27,16 27,6.7523302 27.015506,7.4030625 26.781632,6.8359116 26.431146,5.9859741 25.650673,5.3142941 24.727273,5.0679167 24.482195,5.0025262 24.157583,5 16,5 7.8424175,5 7.5178047,5.0025262 7.2727273,5.0679167 6.1736418,5.3611697 5.330407,6.2123903 5.07059,7.2909091 5.0024313,7.5738404 5.0005095,7.8126713 5.0005095,16 c 0,8.187329 0.00192,8.42616 0.070081,8.709091 0.2379147,0.987601 0.9918435,1.81776 1.9475918,2.144515 0.4777597,0.163339 0.1915117,0.158542 9.0727267,0.152045 8.095235,-0.0059 8.42725,-0.0088 8.654546,-0.07396 z"
   style="fill:#ffffff;stroke:#1be410;stroke-width:0" /></svg>
