<?xml version="1.0" encoding="UTF-8" standalone="no"?>
<svg
   xmlns:dc="http://purl.org/dc/elements/1.1/"
   xmlns:cc="http://creativecommons.org/ns#"
   xmlns:rdf="http://www.w3.org/1999/02/22-rdf-syntax-ns#"
   xmlns:svg="http://www.w3.org/2000/svg"
   xmlns="http://www.w3.org/2000/svg"
   xmlns:sodipodi="http://sodipodi.sourceforge.net/DTD/sodipodi-0.dtd"
   xmlns:inkscape="http://www.inkscape.org/namespaces/inkscape"
   inkscape:version="1.0 (4035a4fb49, 2020-05-01)"
   sodipodi:docname="happy.svg"
   xml:space="preserve"
   style="enable-background:new 0 0 512 512;"
   viewBox="0 0 512 512"
   y="0px"
   x="0px"
   id="Capa_1"
   version="1.1"><metadata
   id="metadata61"><rdf:RDF><cc:Work
       rdf:about=""><dc:format>image/svg+xml</dc:format><dc:type
         rdf:resource="http://purl.org/dc/dcmitype/StillImage" /></cc:Work></rdf:RDF></metadata><defs
   id="defs59" /><sodipodi:namedview
   inkscape:current-layer="Capa_1"
   inkscape:window-maximized="1"
   inkscape:window-y="-9"
   inkscape:window-x="-9"
   inkscape:cy="254.83636"
   inkscape:cx="256"
   inkscape:zoom="1.71875"
   showgrid="false"
   id="namedview57"
   inkscape:window-height="1051"
   inkscape:window-width="1920"
   inkscape:pageshadow="2"
   inkscape:pageopacity="0"
   guidetolerance="10"
   gridtolerance="10"
   objecttolerance="10"
   borderopacity="1"
   bordercolor="#666666"
   pagecolor="#ffffff" />
<g
   id="g6">
	<g
   id="g4">
		<path
   id="path2"
   d="M256,0C114.615,0,0,114.615,0,256s114.615,256,256,256s256-114.615,256-256S397.385,0,256,0z M256,480    C132.288,480,32,379.712,32,256S132.288,32,256,32s224,100.288,224,224S379.712,480,256,480z" />
	</g>
</g>
<g
   id="g12">
	<g
   id="g10">
		<circle
   id="circle8"
   r="32"
   cy="176"
   cx="176" />
	</g>
</g>
<g
   id="g18">
	<g
   id="g16">
		<circle
   id="circle14"
   r="32"
   cy="176"
   cx="336" />
	</g>
</g>
<g
   id="g24">
	<g
   id="g22">
		<path
   id="path20"
   d="M368,256c0,61.856-50.144,112-112,112s-112-50.144-112-112h-32c0,79.529,64.471,144,144,144s144-64.471,144-144H368z" />
	</g>
</g>
<g
   id="g26">
</g>
<g
   id="g28">
</g>
<g
   id="g30">
</g>
<g
   id="g32">
</g>
<g
   id="g34">
</g>
<g
   id="g36">
</g>
<g
   id="g38">
</g>
<g
   id="g40">
</g>
<g
   id="g42">
</g>
<g
   id="g44">
</g>
<g
   id="g46">
</g>
<g
   id="g48">
</g>
<g
   id="g50">
</g>
<g
   id="g52">
</g>
<g
   id="g54">
</g>
<path
   id="path886"
   d="M 244.65455,511.3334 C 163.68513,508.14093 87.661987,465.01943 42.611141,396.73127 30.247101,377.98983 19.055675,354.75998 12.511787,334.25455 c -4.9868014,-15.62627 -9.4450283,-37.32266 -11.1782427,-54.4 -0.9539411,-9.39918 -0.9539411,-38.30992 0,-47.7091 1.7332144,-17.07734 6.1914413,-38.77373 11.1782427,-54.4 C 15.447712,168.54566 21.550577,153.4999 26.199628,144 64.501725,65.733219 140.15263,12.068843 226.32727,2.0357253 243.78231,0.00347526 268.27936,0.00238673 285.67273,2.0330882 378.99287,12.928352 459.29489,74.761862 493.84378,162.32727 c 17.66915,44.78307 22.24775,92.72868 13.4458,140.8 -8.07254,44.08772 -28.93376,86.9916 -58.84285,121.01818 -51.92107,59.06889 -124.91546,90.29791 -203.79218,87.18795 z m 31.41818,-31.9476 c 44.19675,-4.03085 85.5988,-20.69775 120.40131,-48.46901 9.03194,-7.2072 27.19067,-25.27085 33.93853,-33.76085 23.79894,-29.94322 39.46591,-63.91905 46.04146,-99.84685 2.81541,-15.38297 3.50976,-23.55535 3.50976,-41.30909 0,-17.75374 -0.69435,-25.92612 -3.50976,-41.30909 C 464.20922,147.78719 420.66237,88.945932 359.85455,57.139668 c -23.4969,-12.290334 -48.2053,-20.001701 -76.21819,-23.78731 -11.31201,-1.528685 -43.96071,-1.528685 -55.27272,0 -50.21514,6.78598 -93.26379,27.479991 -128.507087,61.774915 -18.444061,17.947747 -31.785437,35.910537 -43.212964,58.181817 -12.775441,24.89825 -20.022831,48.78005 -23.571272,77.67273 -1.451131,11.81562 -1.451131,38.22074 0,50.03636 3.522036,28.67767 10.496466,51.83123 23.134086,76.8 17.403901,34.38575 43.762662,63.88531 76.157237,85.23181 4.96,3.2684 11.37454,7.25482 14.25454,8.85871 27.79555,15.47943 59.11737,24.9773 91.34546,27.69914 5.72392,0.48341 32.05625,0.32999 38.10909,-0.22204 z"
   style="fill:#ffffff;stroke:#1be410;stroke-width:0" /><path
   id="path888"
   d="M 169.14126,206.86516 C 154.30217,203.27237 144.58182,191.05628 144.58182,176 c 0,-16.96977 12.63934,-30.40392 29.67273,-31.53864 14.38461,-0.95827 28.05199,8.81989 32.23541,23.06242 1.21664,4.14207 1.21664,12.81037 0,16.95244 -4.73083,16.10622 -21.58027,26.20674 -37.3487,22.38894 z"
   style="fill:#ffffff;stroke:#1be410;stroke-width:0" /><path
   id="path890"
   d="M 329.14126,206.86516 C 314.30217,203.27237 304.58182,191.05628 304.58182,176 c 0,-16.96977 12.63934,-30.40392 29.67273,-31.53864 14.38461,-0.95827 28.05199,8.81989 32.23541,23.06242 1.21664,4.14207 1.21664,12.81037 0,16.95244 -4.73083,16.10622 -21.58027,26.20674 -37.3487,22.38894 z"
   style="fill:#ffffff;stroke:#1be410;stroke-width:0" /><path
   id="path892"
   d="m 242.59916,399.13817 c -27.42557,-2.90847 -51.71887,-12.49335 -73.99262,-29.19364 -11.77878,-8.83143 -25.85047,-24.35123 -34.73374,-38.30817 -3.62242,-5.69135 -10.15856,-19.12994 -12.85248,-26.42526 -4.61729,-12.50391 -7.71752,-27.80275 -8.35128,-41.21136 l -0.37813,-8.00026 15.85454,2.6e-4 L 144,256 v 5.01624 c 0,15.21797 5.83748,35.60054 14.53962,50.76762 29.61976,51.62463 94.57328,71.20979 147.78765,44.56176 35.53651,-17.79552 59.7147,-54.22031 61.49064,-92.63653 L 368.17429,256 h 15.7074 15.70741 l -0.33684,8.29091 c -1.14536,28.19219 -11.86259,56.49734 -30.56595,80.72727 -4.52593,5.86329 -16.765,18.25064 -22.50449,22.77716 -21.00832,16.56845 -43.27458,26.27267 -69.92112,30.47345 -6.71049,1.0579 -26.95386,1.58073 -33.66154,0.86938 z"
   style="fill:#ffffff;stroke:#1be410;stroke-width:0" /></svg>
