<?xml version="1.0" encoding="UTF-8" standalone="no"?>
<svg
   xmlns:dc="http://purl.org/dc/elements/1.1/"
   xmlns:cc="http://creativecommons.org/ns#"
   xmlns:rdf="http://www.w3.org/1999/02/22-rdf-syntax-ns#"
   xmlns:svg="http://www.w3.org/2000/svg"
   xmlns="http://www.w3.org/2000/svg"
   xmlns:sodipodi="http://sodipodi.sourceforge.net/DTD/sodipodi-0.dtd"
   xmlns:inkscape="http://www.inkscape.org/namespaces/inkscape"
   inkscape:version="1.0 (4035a4fb49, 2020-05-01)"
   sodipodi:docname="calendar.svg"
   xml:space="preserve"
   style="enable-background:new 0 0 512 512;"
   viewBox="0 0 512 512"
   y="0px"
   x="0px"
   id="Capa_1"
   version="1.1"><metadata
   id="metadata65"><rdf:RDF><cc:Work
       rdf:about=""><dc:format>image/svg+xml</dc:format><dc:type
         rdf:resource="http://purl.org/dc/dcmitype/StillImage" /></cc:Work></rdf:RDF></metadata><defs
   id="defs63" /><sodipodi:namedview
   inkscape:current-layer="Capa_1"
   inkscape:window-maximized="1"
   inkscape:window-y="-9"
   inkscape:window-x="-9"
   inkscape:cy="254.83636"
   inkscape:cx="256"
   inkscape:zoom="1.71875"
   showgrid="false"
   id="namedview61"
   inkscape:window-height="1051"
   inkscape:window-width="1920"
   inkscape:pageshadow="2"
   inkscape:pageopacity="0"
   guidetolerance="10"
   gridtolerance="10"
   objecttolerance="10"
   borderopacity="1"
   bordercolor="#666666"
   pagecolor="#ffffff" />
<g
   id="g28">
	<g
   id="g26">
		<g
   id="g24">
			<circle
   id="circle2"
   r="20"
   cy="210"
   cx="386" />
			<path
   id="path4"
   d="M432,40h-26V20c0-11.046-8.954-20-20-20c-11.046,0-20,8.954-20,20v20h-91V20c0-11.046-8.954-20-20-20     c-11.046,0-20,8.954-20,20v20h-90V20c0-11.046-8.954-20-20-20s-20,8.954-20,20v20H80C35.888,40,0,75.888,0,120v312     c0,44.112,35.888,80,80,80h153c11.046,0,20-8.954,20-20c0-11.046-8.954-20-20-20H80c-22.056,0-40-17.944-40-40V120     c0-22.056,17.944-40,40-40h25v20c0,11.046,8.954,20,20,20s20-8.954,20-20V80h90v20c0,11.046,8.954,20,20,20s20-8.954,20-20V80h91     v20c0,11.046,8.954,20,20,20c11.046,0,20-8.954,20-20V80h26c22.056,0,40,17.944,40,40v114c0,11.046,8.954,20,20,20     c11.046,0,20-8.954,20-20V120C512,75.888,476.112,40,432,40z" />
			<path
   id="path6"
   d="M391,270c-66.72,0-121,54.28-121,121s54.28,121,121,121s121-54.28,121-121S457.72,270,391,270z M391,472     c-44.663,0-81-36.336-81-81s36.337-81,81-81c44.663,0,81,36.336,81,81S435.663,472,391,472z" />
			<path
   id="path8"
   d="M420,371h-9v-21c0-11.046-8.954-20-20-20c-11.046,0-20,8.954-20,20v41c0,11.046,8.954,20,20,20h29     c11.046,0,20-8.954,20-20C440,379.954,431.046,371,420,371z" />
			<circle
   id="circle10"
   r="20"
   cy="210"
   cx="299" />
			<circle
   id="circle12"
   r="20"
   cy="297"
   cx="212" />
			<circle
   id="circle14"
   r="20"
   cy="210"
   cx="125" />
			<circle
   id="circle16"
   r="20"
   cy="297"
   cx="125" />
			<circle
   id="circle18"
   r="20"
   cy="384"
   cx="125" />
			<circle
   id="circle20"
   r="20"
   cy="384"
   cx="212" />
			<circle
   id="circle22"
   r="20"
   cy="210"
   cx="212" />
		</g>
	</g>
</g>
<g
   id="g30">
</g>
<g
   id="g32">
</g>
<g
   id="g34">
</g>
<g
   id="g36">
</g>
<g
   id="g38">
</g>
<g
   id="g40">
</g>
<g
   id="g42">
</g>
<g
   id="g44">
</g>
<g
   id="g46">
</g>
<g
   id="g48">
</g>
<g
   id="g50">
</g>
<g
   id="g52">
</g>
<g
   id="g54">
</g>
<g
   id="g56">
</g>
<g
   id="g58">
</g>
<path
   id="path890"
   d="M 73.890909,511.37184 C 54.091028,509.79784 36.813296,501.54551 22.661152,486.9031 12.104886,475.98113 5.3863174,463.35269 1.938839,447.95274 L 0.58181818,441.89091 V 276.07273 c 0,-158.37117 0.0477195,-166.03967 1.06254152,-170.74971 C 8.7347217,72.414854 32.477144,48.547504 64.852067,41.782735 69.395311,40.83342 73.521711,40.568073 87.638156,40.317485 L 104.87631,40.01148 105.1188,27.998154 c 0.2417,-11.974349 0.24828,-12.025572 2.02766,-15.787559 4.63779,-9.8053048 14.94622,-14.1491855 24.81498,-10.4568104 4.28126,1.6018253 8.64898,5.5876915 10.70017,9.7646954 1.61034,3.279281 1.63146,3.465115 1.81543,15.972429 l 0.18614,12.654546 h 45.30046 45.30045 l 0.18758,-12.654546 c 0.1789,-12.069594 0.2537,-12.789017 1.61821,-15.563636 6.77916,-13.7847875 25.52046,-15.4148656 34.03247,-2.9600701 3.12527,4.5729131 3.80674,8.2493411 3.80674,20.5368551 v 10.641397 h 45.63134 45.63133 l 0.18685,-12.363637 c 0.18358,-12.147535 0.21539,-12.424653 1.82023,-15.854545 2.10619,-4.5014048 6.38945,-8.5608856 10.76617,-10.2036896 4.54655,-1.70654677 11.36793,-1.45188129 15.51254,0.5791362 3.87295,1.8978899 7.62112,5.7583096 9.51616,9.8011364 1.50479,3.210273 1.55967,3.700545 1.74822,15.616296 l 0.19465,12.30197 17.55081,0.268873 c 18.22255,0.279164 22.1993,0.711268 31.38871,3.410617 24.26233,7.126961 45.05008,27.385847 52.74282,51.400997 4.02559,12.567071 3.81926,8.275341 3.81926,79.442841 v 64.29091 l -1.26794,2.74457 c -1.77774,3.84809 -6.14582,8.29857 -10.00505,10.19381 -4.3609,2.14161 -11.64445,2.29428 -15.90794,0.33345 -4.08765,-1.87995 -8.17899,-6.01206 -10.12553,-10.22641 l -1.67536,-3.62723 -0.29155,-63.12728 L 471.85325,112 l -1.3599,-4.07273 c -4.13656,-12.388466 -13.62072,-21.975369 -25.98426,-26.26576 -4.60066,-1.596521 -4.85098,-1.617775 -21.62206,-1.835689 l -16.96751,-0.220462 -0.19612,12.430085 -0.19613,12.430076 -1.89654,3.85009 c -3.52775,7.1615 -9.86597,11.19697 -17.62215,11.21979 -3.79267,0.0112 -4.91456,-0.24461 -8.2283,-1.87596 -4.46727,-2.19923 -7.5477,-5.35955 -9.70164,-9.95325 -1.48169,-3.16001 -1.53946,-3.68506 -1.72003,-15.633463 l -0.18685,-12.363636 h -45.58049 -45.58049 l -0.22482,12.072727 c -0.26599,14.283862 -0.92291,16.773362 -5.72778,21.706332 -7.99394,8.20706 -20.47393,8.15044 -28.21748,-0.12803 -4.83765,-5.17184 -5.17716,-6.49427 -5.39047,-20.996484 L 235.26409,79.709091 H 189.92296 144.58182 V 91.61454 c 0,14.08739 -0.54678,16.30718 -5.29707,21.50476 -3.2433,3.54867 -6.29808,5.25177 -11.17765,6.23173 -6.52635,1.31068 -15.11498,-2.26263 -18.99582,-7.90323 -3.28921,-4.7807 -3.63588,-6.5068 -3.94973,-19.665982 l -0.28794,-12.072727 -14.036804,0.0047 c -7.720245,0.0023 -15.731904,0.279413 -17.803695,0.615547 -15.187444,2.464046 -28.163943,14.570833 -32.019122,29.873132 -1.144188,4.54135 -1.159444,6.72378 -1.159444,165.87031 0,158.29088 0.02106,161.35076 1.140863,165.72914 2.96142,11.57903 10.663248,21.10526 21.259137,26.29497 8.829272,4.32444 1.73859,3.99565 93.381815,4.33004 l 82.32728,0.30039 3.2,1.50943 c 4.06802,1.91887 7.66816,5.53399 9.69992,9.74029 2.25713,4.6729 2.28788,11.14917 0.0756,15.91916 -2.94264,6.34468 -8.63303,10.52698 -15.71664,11.55134 -4.4752,0.64716 -153.115934,0.57746 -161.331591,-0.0756 z"
   style="fill:#ffffff;stroke:#1be410;stroke-width:0" /><path
   id="path892"
   d="m 381.80914,229.21918 c -5.91118,-1.48452 -11.06645,-5.72938 -13.58301,-11.18428 -1.42816,-3.09569 -1.66956,-4.32536 -1.6273,-8.28945 0.0607,-5.69253 1.36253,-8.94634 5.23646,-13.08788 7.90773,-8.454 21.12958,-8.29844 28.71231,0.3378 6.76124,7.70063 6.65586,18.69483 -0.25249,26.34155 -4.23083,4.68302 -12.6252,7.35412 -18.48597,5.88226 z"
   style="fill:#ffffff;stroke:#1be410;stroke-width:0" /><path
   id="path894"
   d="m 294.53642,229.18513 c -5.43667,-1.28086 -10.70818,-5.54631 -13.25781,-10.72758 -1.20786,-2.45454 -1.42406,-3.73309 -1.42406,-8.42119 0,-4.56045 0.22946,-5.99293 1.31186,-8.18942 2.13273,-4.32792 5.08695,-7.30303 9.32024,-9.38614 3.43924,-1.69238 4.43541,-1.91297 8.5574,-1.89495 3.77518,0.0165 5.29187,0.31039 7.95113,1.54064 9.42674,4.36106 14.01495,15.43337 10.2539,24.74479 -0.78811,1.95118 -2.06248,4.31499 -2.83192,5.25292 -4.82519,5.88176 -12.84559,8.7384 -19.88074,7.08093 z"
   style="fill:#ffffff;stroke:#1be410;stroke-width:0" /><path
   id="path896"
   d="m 207.85217,229.22057 c -5.92297,-1.48827 -11.51465,-6.0964 -13.94572,-11.49275 -1.76102,-3.90899 -1.77886,-11.54591 -0.0359,-15.38148 1.75265,-3.85695 6.11598,-8.29835 9.98321,-10.16182 2.69426,-1.29827 4.09718,-1.58252 7.92808,-1.60636 3.93807,-0.0245 5.21406,0.22918 8.28944,1.64797 12.20023,5.62844 15.31181,21.09175 6.26021,31.11079 -4.22884,4.68082 -12.626,7.3544 -18.4793,5.88365 z"
   style="fill:#ffffff;stroke:#1be410;stroke-width:0" /><path
   id="path898"
   d="m 120.56291,229.18308 c -8.81324,-2.07527 -15.02734,-9.98035 -15.05105,-19.14672 -0.0199,-7.69558 4.37051,-14.55273 11.43359,-17.85752 4.85403,-2.27118 11.2708,-2.30004 16.08609,-0.0724 9.26033,4.28408 13.84689,15.17658 10.36721,24.62078 -1.92792,5.23256 -7.19573,10.24984 -12.47302,11.87983 -4.14271,1.27955 -6.75768,1.42489 -10.36282,0.57598 z"
   style="fill:#ffffff;stroke:#1be410;stroke-width:0" /><path
   id="path900"
   d="m 117.99389,315.28576 c -1.66336,-0.63948 -4.36148,-2.36494 -5.99582,-3.83435 -10.3489,-9.30455 -7.95995,-25.83372 4.65648,-32.21829 3.89496,-1.97106 10.83819,-2.22946 15.24458,-0.56734 4.31257,1.62673 8.50395,5.44298 10.66729,9.71257 1.53159,3.02276 1.72449,3.9892 1.72449,8.63983 0,6.36159 -1.29882,9.49704 -5.80742,14.01961 -5.24023,5.25646 -13.44295,6.95707 -20.4896,4.24797 z"
   style="fill:#ffffff;stroke:#1be410;stroke-width:0" /><path
   id="path902"
   d="m 205.55474,315.50114 c -6.1681,-2.31833 -10.64473,-7.15317 -12.48523,-13.48427 -2.55277,-8.78122 2.07798,-18.58196 10.8138,-22.88682 2.20122,-1.08473 3.61913,-1.31058 8.18942,-1.30444 4.68613,0.006 5.92299,0.21723 8.1276,1.38602 4.05081,2.14756 5.69373,3.55051 7.87267,6.72275 2.86186,4.1665 4.15548,9.73082 3.27803,14.09999 -1.31726,6.55913 -5.0982,11.65004 -10.84194,14.5983 -3.86139,1.98206 -10.90346,2.39102 -14.95435,0.86847 z"
   style="fill:#ffffff;stroke:#1be410;stroke-width:0" /><path
   id="path904"
   d="m 206.61759,402.86596 c -3.75883,-1.20248 -6.57396,-3.03527 -9.30456,-6.05772 -3.54069,-3.91911 -4.68619,-7.03387 -4.71044,-12.80824 -0.0179,-4.26119 0.20417,-5.40352 1.60497,-8.25605 0.97598,-1.98746 2.91148,-4.48569 4.84278,-6.25079 9.70875,-8.87326 24.66741,-5.81851 30.6091,6.25076 3.52067,7.15151 2.24995,15.38255 -3.32797,21.55663 -4.61325,5.10633 -13.39729,7.58614 -19.71388,5.56541 z"
   style="fill:#ffffff;stroke:#1be410;stroke-width:0" /><path
   id="path906"
   d="m 120.3842,403.15742 c -5.95835,-1.4294 -11.99407,-7.01995 -13.96744,-12.93727 -3.66262,-10.98263 3.36439,-23.08735 14.77815,-25.45684 8.64625,-1.79495 17.70326,2.85856 21.58657,11.09124 1.25533,2.66129 1.50943,4.03253 1.50943,8.14545 0,4.12403 -0.25205,5.47696 -1.51749,8.14545 -3.93113,8.2898 -13.70268,13.09586 -22.38922,11.01197 z"
   style="fill:#ffffff;stroke:#1be410;stroke-width:0" /><path
   id="path908"
   d="m 383.70909,511.33626 c -40.75112,-2.08907 -78.2678,-25.96563 -98.60458,-62.75444 -18.82398,-34.05216 -19.6881,-75.50304 -2.3031,-110.47636 4.88017,-9.8174 9.36126,-16.74594 15.88746,-24.5647 19.07297,-22.85051 46.35395,-37.92131 76.17348,-42.08042 9.27328,-1.2934 24.07271,-1.19798 33.57401,0.21646 30.15805,4.48956 56.97373,19.77879 76.07996,43.37775 20.7967,25.68693 30.06108,57.37245 26.27897,89.87792 -4.75378,40.8566 -30.19264,76.52534 -67.44984,94.57385 -19.19936,9.30074 -37.63514,12.95781 -59.63636,11.82994 z m 21.81818,-40.38509 c 32.2611,-5.62222 57.96275,-30.73923 65.16066,-63.67844 1.28953,-5.90119 1.79589,-20.67005 0.92047,-26.84708 -4.98916,-35.20369 -30.54372,-62.25379 -65.43746,-69.2671 -7.73016,-1.55368 -21.59738,-1.67493 -29.15276,-0.25488 -33.19743,6.2395 -58.18691,30.35242 -65.55207,63.25268 -1.16827,5.21867 -1.35366,7.59944 -1.33289,17.11638 0.0215,9.87324 0.18877,11.75245 1.56484,17.58544 8.29629,35.16694 36.28798,59.44865 72.88376,63.22384 4.12306,0.42533 15.55871,-0.19207 20.94545,-1.13084 z"
   style="fill:#ffffff;stroke:#1be410;stroke-width:0" /><path
   id="path910"
   d="m 386.45382,410.14716 c -5.3597,-1.30742 -9.9345,-4.90001 -12.67403,-9.95293 l -1.99797,-3.68514 -0.16853,-25.08014 c -0.16552,-24.63265 -0.14567,-25.14125 1.1128,-28.5048 1.74278,-4.65799 6.53177,-9.46356 11.15457,-11.19317 7.46044,-2.79131 15.1917,-1.11535 20.82043,4.51338 5.24217,5.24217 5.77164,7.29689 5.77164,22.39814 v 12.41703 l 7.12727,0.25438 c 6.25197,0.22314 7.53203,0.44843 10.42301,1.83442 4.19891,2.01304 7.81796,5.61267 9.74029,9.68803 1.25532,2.6613 1.50943,4.03254 1.50943,8.14546 0,4.13521 -0.25274,5.48454 -1.54261,8.23586 -1.90364,4.06049 -5.38108,7.51214 -9.70995,9.63797 l -3.2929,1.61708 -18.03636,0.10563 c -9.92,0.0581 -19.02669,-0.13594 -20.23709,-0.4312 z"
   style="fill:#ffffff;stroke:#1be410;stroke-width:0" /></svg>
