<?xml version="1.0" encoding="UTF-8" standalone="no"?>
<svg
   xmlns:dc="http://purl.org/dc/elements/1.1/"
   xmlns:cc="http://creativecommons.org/ns#"
   xmlns:rdf="http://www.w3.org/1999/02/22-rdf-syntax-ns#"
   xmlns:svg="http://www.w3.org/2000/svg"
   xmlns="http://www.w3.org/2000/svg"
   xmlns:sodipodi="http://sodipodi.sourceforge.net/DTD/sodipodi-0.dtd"
   xmlns:inkscape="http://www.inkscape.org/namespaces/inkscape"
   inkscape:version="1.0 (4035a4fb49, 2020-05-01)"
   sodipodi:docname="icon-profile.svg"
   id="svg9"
   version="1.1"
   viewBox="0 0 32 32">
  <metadata
     id="metadata15">
    <rdf:RDF>
      <cc:Work
         rdf:about="">
        <dc:format>image/svg+xml</dc:format>
        <dc:type
           rdf:resource="http://purl.org/dc/dcmitype/StillImage" />
      </cc:Work>
    </rdf:RDF>
  </metadata>
  <defs
     id="defs13" />
  <sodipodi:namedview
     inkscape:current-layer="svg9"
     inkscape:window-maximized="1"
     inkscape:window-y="-9"
     inkscape:window-x="-9"
     inkscape:cy="15.927273"
     inkscape:cx="16"
     inkscape:zoom="27.5"
     showgrid="false"
     id="namedview11"
     inkscape:window-height="1051"
     inkscape:window-width="1920"
     inkscape:pageshadow="2"
     inkscape:pageopacity="0"
     guidetolerance="10"
     gridtolerance="10"
     objecttolerance="10"
     borderopacity="1"
     bordercolor="#666666"
     pagecolor="#ffffff" />
  <title
     id="title2" />
  <g
     id="about">
    <path
       id="path4"
       d="M16,16A7,7,0,1,0,9,9,7,7,0,0,0,16,16ZM16,4a5,5,0,1,1-5,5A5,5,0,0,1,16,4Z" />
    <path
       id="path6"
       d="M17,18H15A11,11,0,0,0,4,29a1,1,0,0,0,1,1H27a1,1,0,0,0,1-1A11,11,0,0,0,17,18ZM6.06,28A9,9,0,0,1,15,20h2a9,9,0,0,1,8.94,8Z" />
  </g>
  <path
     id="path840"
     d="M 15.545455,15.959455 C 13.765093,15.858063 11.940339,14.961704 10.764408,13.610902 8.679046,11.215428 8.4488389,7.7677858 10.198683,5.138448 11.954599,2.4999851 15.271659,1.3732396 18.255322,2.4017526 20.60628,3.2121628 22.315207,5.1604865 22.846056,7.6355869 22.937276,8.0608985 22.943712,8.150828 22.943712,9 c 0,0.849172 -0.0064,0.9391015 -0.09766,1.364413 -0.530657,2.474204 -2.240627,4.423718 -4.590734,5.233834 -0.534179,0.18414 -1.211473,0.324853 -1.683023,0.34966 -0.194764,0.01025 -0.403208,0.02286 -0.463208,0.02803 -0.06,0.0052 -0.313636,-0.0022 -0.563636,-0.01648 z m 1.295236,-2.014914 c 2.09976,-0.360589 3.743261,-2.00409 4.10385,-4.1038497 0.07207,-0.4196589 0.07207,-1.2617237 0,-1.6813826 -0.359148,-2.091364 -2.016009,-3.7540861 -4.087313,-4.1017716 -0.446366,-0.074926 -1.26809,-0.074926 -1.714456,0 -2.061114,0.345975 -3.73926,2.0241207 -4.085235,4.0852345 -0.07493,0.4463666 -0.07493,1.2680902 0,1.7144568 0.345217,2.0565986 1.99723,3.7145386 4.069736,4.0843386 0.397949,0.07101 1.308059,0.07259 1.713418,0.003 z"
     style="fill:#ffffff;stroke:#1be410;stroke-width:0" />
  <path
     id="path842"
     d="M 4.8444593,29.962436 C 4.4787087,29.900499 4.1698622,29.626779 4.0662385,29.272727 3.9606859,28.912085 4.0650267,27.586432 4.2723128,26.654545 5.0912914,22.972702 7.7492865,19.941879 11.272727,18.672208 12.655188,18.174039 13.868288,18.00207 16,18.00207 c 2.64264,0 4.079424,0.28497 5.854545,1.161186 1.099013,0.542482 1.999184,1.18628 2.873238,2.054926 1.517525,1.508137 2.538172,3.354199 2.995593,5.418182 0.210647,0.950489 0.316259,2.273721 0.210495,2.63734 -0.07587,0.260841 -0.263569,0.477168 -0.525716,0.605898 L 27.2,29.981818 l -11.090909,0.005 c -6.1,0.0028 -11.1690843,-0.0082 -11.2646317,-0.0244 z M 25.929138,27.790909 c -0.04449,-0.376653 -0.202169,-1.088948 -0.331416,-1.497114 -0.980366,-3.096021 -3.52133,-5.416406 -6.688631,-6.107996 -0.780005,-0.170317 -1.154649,-0.191599 -3.109915,-0.176663 -1.992924,0.01522 -2.176286,0.03084 -3.053721,0.260084 -1.848817,0.483033 -3.5464608,1.567226 -4.7254219,3.017872 -1.022846,1.258555 -1.7696861,2.984228 -1.949171,4.503817 L 6.0461656,28 H 16 25.953835 Z"
     style="fill:#ffffff;stroke:#1be410;stroke-width:0" />
</svg>
