<?xml version="1.0" encoding="UTF-8" standalone="no"?>
<svg
   xmlns:dc="http://purl.org/dc/elements/1.1/"
   xmlns:cc="http://creativecommons.org/ns#"
   xmlns:rdf="http://www.w3.org/1999/02/22-rdf-syntax-ns#"
   xmlns:svg="http://www.w3.org/2000/svg"
   xmlns="http://www.w3.org/2000/svg"
   xmlns:sodipodi="http://sodipodi.sourceforge.net/DTD/sodipodi-0.dtd"
   xmlns:inkscape="http://www.inkscape.org/namespaces/inkscape"
   inkscape:version="1.0 (4035a4fb49, 2020-05-01)"
   sodipodi:docname="comment-white-oval-bubble.svg"
   xml:space="preserve"
   viewBox="0 0 511.62499 438.52898"
   height="438.52899"
   width="511.625"
   y="0px"
   x="0px"
   id="Capa_1"
   version="1.1"><metadata
   id="metadata41"><rdf:RDF><cc:Work
       rdf:about=""><dc:format>image/svg+xml</dc:format><dc:type
         rdf:resource="http://purl.org/dc/dcmitype/StillImage" /></cc:Work></rdf:RDF></metadata><defs
   id="defs39" /><sodipodi:namedview
   inkscape:current-layer="Capa_1"
   inkscape:window-maximized="1"
   inkscape:window-y="-9"
   inkscape:window-x="-9"
   inkscape:cy="218.10172"
   inkscape:cx="255.813"
   inkscape:zoom="1.720003"
   showgrid="false"
   id="namedview37"
   inkscape:window-height="1051"
   inkscape:window-width="1920"
   inkscape:pageshadow="2"
   inkscape:pageopacity="0"
   guidetolerance="10"
   gridtolerance="10"
   objecttolerance="10"
   borderopacity="1"
   bordercolor="#666666"
   pagecolor="#ffffff" />
<g
   transform="translate(0,-36.549)"
   id="g4">
	<path
   id="path2"
   d="M 477.364,127.481 C 454.525,99.409 423.5,77.233 384.292,60.959 345.084,44.685 302.256,36.549 255.813,36.549 c -46.442,0 -89.269,8.136 -128.478,24.41 C 88.126,77.233 57.102,99.405 34.261,127.481 11.419,155.555 0,186.15 0,219.269 c 0,28.549 8.61,55.299 25.837,80.232 17.227,24.934 40.778,45.874 70.664,62.813 -2.096,7.611 -4.57,14.842 -7.426,21.7 -2.855,6.851 -5.424,12.467 -7.708,16.847 -2.286,4.374 -5.376,9.23 -9.281,14.555 -3.899,5.332 -6.849,9.093 -8.848,11.283 -1.997,2.19 -5.28,5.801 -9.851,10.848 -4.565,5.041 -7.517,8.33 -8.848,9.853 -0.193,0.097 -0.953,0.948 -2.285,2.574 -1.331,1.615 -1.999,2.419 -1.999,2.419 l -1.713,2.57 c -0.953,1.42 -1.381,2.327 -1.287,2.703 0.096,0.384 -0.094,1.335 -0.57,2.854 -0.477,1.526 -0.428,2.669 0.142,3.429 v 0.287 c 0.762,3.234 2.283,5.853 4.567,7.851 2.284,1.992 4.858,2.991 7.71,2.991 h 1.429 c 12.375,-1.526 23.223,-3.613 32.548,-6.279 49.87,-12.751 93.649,-35.782 131.334,-69.094 14.274,1.523 28.074,2.283 41.396,2.283 46.442,0 89.271,-8.135 128.479,-24.414 39.208,-16.276 70.233,-38.444 93.072,-66.517 22.843,-28.072 34.263,-58.67 34.263,-91.789 10e-4,-33.114 -11.418,-63.713 -34.261,-91.787 z m -32.12,164.594 c -19.896,22.456 -46.733,40.303 -80.517,53.529 -33.784,13.223 -70.093,19.842 -108.921,19.842 -11.609,0 -23.98,-0.76 -37.113,-2.286 l -16.274,-1.708 -12.277,10.852 c -23.408,20.558 -49.582,36.829 -78.513,48.821 8.754,-15.414 15.416,-31.785 19.986,-49.102 l 7.708,-27.412 -24.838,-14.27 C 89.741,316.248 70.567,299.548 56.955,280.227 43.345,260.912 36.543,240.589 36.543,219.273 c 0,-26.077 9.945,-50.343 29.834,-72.803 19.895,-22.458 46.729,-40.303 80.515,-53.531 33.786,-13.229 70.089,-19.849 108.92,-19.849 38.828,0 75.13,6.617 108.914,19.845 33.783,13.229 60.62,31.073 80.517,53.531 19.89,22.46 29.834,46.727 29.834,72.802 0,26.075 -9.944,50.347 -29.833,72.807 z" />
</g>
<g
   transform="translate(0,-36.549)"
   id="g6">
</g>
<g
   transform="translate(0,-36.549)"
   id="g8">
</g>
<g
   transform="translate(0,-36.549)"
   id="g10">
</g>
<g
   transform="translate(0,-36.549)"
   id="g12">
</g>
<g
   transform="translate(0,-36.549)"
   id="g14">
</g>
<g
   transform="translate(0,-36.549)"
   id="g16">
</g>
<g
   transform="translate(0,-36.549)"
   id="g18">
</g>
<g
   transform="translate(0,-36.549)"
   id="g20">
</g>
<g
   transform="translate(0,-36.549)"
   id="g22">
</g>
<g
   transform="translate(0,-36.549)"
   id="g24">
</g>
<g
   transform="translate(0,-36.549)"
   id="g26">
</g>
<g
   transform="translate(0,-36.549)"
   id="g28">
</g>
<g
   transform="translate(0,-36.549)"
   id="g30">
</g>
<g
   transform="translate(0,-36.549)"
   id="g32">
</g>
<g
   transform="translate(0,-36.549)"
   id="g34">
</g>
<path
   id="path866"
   d="m 46.062474,437.67875 c -3.344193,-1.04022 -6.212859,-3.68547 -7.831909,-7.22194 -1.232766,-2.69272 -1.398472,-3.68835 -1.075362,-6.4612 0.530723,-4.55455 2.171257,-6.81498 16.312038,-22.47586 18.95049,-20.98761 25.509594,-30.39179 33.040244,-47.37176 3.671732,-8.27895 9.025699,-22.84314 9.938326,-27.03483 0.35358,-1.62401 0.188784,-1.84433 -2.391822,-3.19767 C 88.770731,321.1448 72.318812,309.89069 64.955982,304.01068 56.105966,296.943 40.702388,281.68932 34.279424,273.63264 16.338762,251.1287 5.9408977,228.32764 1.6648086,202.11337 0.2068636,193.17554 0.19345705,172.79058 1.6393813,163.45065 3.9587473,148.46874 7.8770112,135.98977 14.509269,122.46235 23.361518,104.40695 34.018321,90.094692 50.656584,73.915924 60.546083,64.299545 68.728981,57.695452 80.522612,49.812248 135.59339,13.001348 206.81976,-4.1052344 282.55714,1.2892062 c 71.17418,5.0694236 136.35904,31.5995508 178.4104,72.6127228 16.73457,16.321425 27.31475,30.535231 36.1464,48.560421 9.8327,20.06831 13.85455,37.39667 13.89878,59.88362 0.0466,23.72066 -4.27554,41.78251 -15.08602,63.04241 -23.10255,45.43351 -70.87579,82.5159 -132.84644,103.11764 -43.38704,14.42374 -94.63488,19.78512 -142.52874,14.91089 l -6.19176,-0.63014 -6.88961,5.7616 c -28.21175,23.59276 -59.48388,41.47279 -95.26155,54.46635 -16.867055,6.1257 -41.239443,12.35337 -56.932496,14.54747 -7.242623,1.01261 -6.368456,1.00156 -9.21363,0.11656 z m 72.827406,-55.88899 c 27.54588,-12.364 50.37434,-27.23659 74.96694,-48.84046 8.15849,-7.16698 9.13583,-7.8559 10.75579,-7.58157 0.98003,0.16598 6.7528,0.81271 12.82837,1.43719 38.9841,4.00702 70.52723,2.67198 103.57006,-4.38352 81.07205,-17.311 141.63896,-65.33885 152.54012,-120.96002 1.74668,-8.9121 2.14475,-22.26411 0.93582,-31.38917 C 471.23715,145.54229 460.174,124.43989 439.65978,103.6411 419.87468,83.581558 396.63388,68.754119 365.76665,56.497889 300.8366,30.71658 220.91065,29.492194 154.35969,53.259344 115.62204,67.093604 83.873495,88.129527 62.19937,114.32283 c -12.199703,14.74341 -20.678655,32.162 -24.218219,49.75229 -1.135188,5.64145 -1.336714,8.43983 -1.336714,18.56154 0,10.12171 0.201526,12.9201 1.336714,18.56155 5.480878,27.23788 22.448188,53.07272 48.770578,74.25929 8.438072,6.7917 21.405871,15.20326 37.508851,24.33012 7.89853,4.47674 14.37009,8.42664 14.38122,8.77757 0.039,1.23016 -9.81245,35.47759 -12.13457,42.18429 -3.08576,8.91223 -7.43832,18.99792 -11.71182,27.13844 -1.9024,3.62383 -3.4589,6.69795 -3.4589,6.83138 0,0.43597 0.40697,0.27813 7.55337,-2.92954 z"
   style="fill:#ffffff;stroke:#1be410;stroke-width:0" /></svg>
