<?xml version="1.0" encoding="UTF-8" standalone="no"?>
<svg
   xmlns:dc="http://purl.org/dc/elements/1.1/"
   xmlns:cc="http://creativecommons.org/ns#"
   xmlns:rdf="http://www.w3.org/1999/02/22-rdf-syntax-ns#"
   xmlns:svg="http://www.w3.org/2000/svg"
   xmlns="http://www.w3.org/2000/svg"
   xmlns:sodipodi="http://sodipodi.sourceforge.net/DTD/sodipodi-0.dtd"
   xmlns:inkscape="http://www.inkscape.org/namespaces/inkscape"
   inkscape:version="1.0 (4035a4fb49, 2020-05-01)"
   sodipodi:docname="gif.svg"
   id="svg10"
   version="1.1"
   width="512pt"
   viewBox="0 0 512 512"
   height="512pt">
  <metadata
     id="metadata16">
    <rdf:RDF>
      <cc:Work
         rdf:about="">
        <dc:format>image/svg+xml</dc:format>
        <dc:type
           rdf:resource="http://purl.org/dc/dcmitype/StillImage" />
      </cc:Work>
    </rdf:RDF>
  </metadata>
  <defs
     id="defs14" />
  <sodipodi:namedview
     inkscape:current-layer="svg10"
     inkscape:window-maximized="1"
     inkscape:window-y="-9"
     inkscape:window-x="-9"
     inkscape:cy="339.78182"
     inkscape:cx="341.33333"
     inkscape:zoom="1.2890625"
     showgrid="false"
     id="namedview12"
     inkscape:window-height="1051"
     inkscape:window-width="1920"
     inkscape:pageshadow="2"
     inkscape:pageopacity="0"
     guidetolerance="10"
     gridtolerance="10"
     objecttolerance="10"
     borderopacity="1"
     bordercolor="#666666"
     pagecolor="#ffffff" />
  <path
     id="path2"
     d="m456.832031 0h-401.664062c-30.421875 0-55.167969 24.746094-55.167969 55.167969v401.664062c0 30.417969 24.746094 55.167969 55.167969 55.167969h401.664062c30.417969 0 55.167969-24.75 55.167969-55.167969v-401.664062c0-30.421875-24.75-55.167969-55.167969-55.167969zm25.167969 456.832031c0 13.878907-11.289062 25.167969-25.167969 25.167969h-401.664062c-13.878907 0-25.167969-11.289062-25.167969-25.167969v-401.664062c0-13.878907 11.289062-25.167969 25.167969-25.167969h401.664062c13.878907 0 25.167969 11.289062 25.167969 25.167969zm0 0" />
  <path
     id="path4"
     d="m175.828125 215.109375c13.65625 0 16.226563 8.355469 16.710937 15.90625.160157 4.980469 4.816407 6.585937 10.441407 6.585937 6.910156 0 10.445312-1.925781 10.445312-9.960937 0-19.28125-16.230469-30.851563-38.402343-30.851563-20.40625 0-36.957032 9.960938-36.957032 36.796876v44.828124c0 26.832032 16.390625 36.792969 37.601563 36.792969 21.207031 0 37.757812-9.960937 37.757812-36.792969v-19.121093c0-3.535157-2.410156-6.75-6.585937-6.75h-27.316406c-4.175782 0-6.425782 4.179687-6.425782 8.195312 0 4.179688 2.25 8.195313 6.425782 8.195313h13.015624v9.480468c0 12.53125-6.425781 18.476563-16.871093 18.476563-10.605469 0-16.710938-5.945313-16.710938-18.476563v-44.832031c0-12.527343 6.105469-18.472656 16.871094-18.472656zm0 0" />
  <path
     id="path6"
     d="m256.476562 196.792969c-5.300781 0-10.441406 1.925781-10.441406 6.425781v104.4375c0 4.339844 5.144532 6.589844 10.441406 6.589844 5.144532 0 10.445313-2.25 10.445313-6.589844v-104.4375c0-4.5-5.300781-6.425781-10.445313-6.425781zm0 0" />
  <path
     id="path8"
     d="m367.503906 196.792969h-56.078125c-4.65625 0-9.15625 2.246093-9.15625 6.585937v104.277344c0 4.339844 5.140625 6.589844 10.441407 6.589844 5.144531 0 10.445312-2.25 10.445312-6.589844v-44.023438h24.582031c4.5 0 6.425781-4.339843 6.425781-8.035156 0-4.335937-2.25-8.351562-6.425781-8.351562h-24.582031v-32.136719h44.347656c4.175782 0 6.425782-4.339844 6.425782-9.320313 0-4.335937-1.929688-8.996093-6.425782-8.996093zm0 0" />
  <path
     transform="scale(0.74999998)"
     id="path841"
     d="M 66.688687,681.85623 C 49.955924,680.21368 35.40381,673.40699 22.994119,661.41828 12.900071,651.66665 6.3438838,640.55177 2.5814337,626.81212 L 0.77575758,620.21818 V 341.33333 62.448485 L 2.5814337,55.854545 C 6.4076771,41.881931 12.965885,30.864148 23.372668,20.92529 33.716483,11.046569 45.525643,4.7691244 59.345455,1.803085 65.657611,0.44835576 77.707985,0.38787879 341.33333,0.38787879 c 263.148,0 275.68716,0.0626398 281.98788,1.40868091 17.76632,3.7954668 34.81376,14.8988233 45.47929,29.6216223 4.01001,5.535461 9.19068,16.748757 11.28986,24.436363 l 1.80055,6.59394 V 341.33333 620.21818 l -1.80568,6.59394 c -7.43905,27.16583 -28.3484,47.33518 -55.99527,54.01357 -5.54569,1.33961 -18.26834,1.40919 -278.48996,1.52305 -149.97333,0.0656 -275.483425,-0.15601 -278.911313,-0.49251 z M 617.47591,641.91386 c 9.90296,-2.57939 17.85724,-9.25779 22.36781,-18.77997 l 2.48355,-5.24298 0.19824,-275.21172 0.19823,-275.211724 -1.60771,-4.772435 C 637.39864,51.660162 628.7942,43.700842 617.3637,40.723577 c -3.91115,-1.018726 -37.51583,-1.159941 -276.03037,-1.159941 -238.51453,0 -272.119214,0.141215 -276.030368,1.159941 -11.425198,2.975886 -20.035105,10.93707 -23.748025,21.958704 l -1.603422,4.759685 V 341.33333 615.2247 l 1.603422,4.75968 c 3.656721,10.85482 12.271163,18.91914 23.415283,21.92 3.470778,0.93459 44.23428,1.10409 276.00619,1.1476 241.92019,0.0455 272.43789,-0.0802 276.4995,-1.13812 z"
     style="fill:#ffffff;stroke:#1be410;stroke-width:0" />
  <path
     transform="scale(0.74999998)"
     id="path843"
     d="m 219.92727,418.49374 c -14.43038,-3.05572 -24.27001,-10.15435 -29.82461,-21.51645 -5.48244,-11.2145 -5.47236,-11.112 -5.47236,-55.64396 0,-35.93515 0.13911,-40.45843 1.38375,-44.99394 4.42622,-16.1293 12.66561,-25.23564 27.6729,-30.58465 6.36004,-2.2669 7.14606,-2.36293 19.4282,-2.37376 11.08393,-0.01 13.62839,0.22854 18.97882,1.77753 17.48948,5.06333 28.97978,16.83946 31.55948,32.34452 2.48762,14.95153 -4.69784,21.78095 -19.10068,18.15427 -5.02972,-1.2665 -6.58678,-3.40131 -7.86871,-10.78838 -1.23166,-7.0974 -2.25937,-9.49373 -5.46051,-12.73235 -6.50927,-6.58547 -21.61569,-7.65369 -30.52052,-2.15819 -2.71398,1.67489 -4.09519,3.33884 -6.20606,7.47645 l -2.71515,5.32207 v 38.55643 38.55643 l 2.71515,5.32208 c 2.11087,4.13761 3.49208,5.80155 6.20606,7.47645 6.46615,3.9905 17.23582,4.62713 24.43636,1.44452 4.21737,-1.86406 7.22031,-5.04336 9.57073,-10.13281 1.72896,-3.74379 2.01222,-5.57386 2.31142,-14.93333 L 257.36252,358.4 h -9.44706 c -10.66102,0 -13.1923,-0.79493 -15.2593,-4.79206 -2.01882,-3.90397 -1.19976,-10.88018 1.62338,-13.82691 l 2.22892,-2.32648 h 21.17595 21.17596 l 2.53345,2.2653 2.53345,2.2653 -0.0235,19.64984 c -0.0262,21.89453 -0.61414,25.89437 -5.18385,35.26658 -5.2016,10.66819 -16.74825,18.91084 -30.25085,21.59475 -7.32671,1.45633 -21.65833,1.45503 -28.5418,-0.002 z"
     style="fill:#ffffff;stroke:#1be410;stroke-width:0" />
  <path
     transform="scale(0.74999998)"
     id="path845"
     d="m 339.00606,418.39717 c -4.36181,-1.02596 -6.64383,-2.07681 -8.46523,-3.89821 l -2.0075,-2.0075 v -71.89339 -71.89339 l 1.66138,-1.78328 c 2.42575,-2.60374 6.22946,-3.93958 11.21764,-3.93958 5.93974,0 10.10359,1.37063 12.37905,4.07487 l 1.89345,2.25023 v 71.25066 71.25065 l -1.96478,2.33501 c -2.59889,3.08861 -10.25633,5.30243 -14.71401,4.25393 z"
     style="fill:#ffffff;stroke:#1be410;stroke-width:0" />
  <path
     transform="scale(0.74999998)"
     id="path847"
     d="m 413.09091,418.19104 c -3.70283,-0.75839 -7.54568,-2.86681 -8.51034,-4.66928 -0.53129,-0.99273 -0.79875,-25.47968 -0.79875,-73.12845 0,-64.97256 0.11767,-71.80396 1.26502,-73.44204 2.73875,-3.91011 3.44213,-3.96945 47.04977,-3.96945 h 40.60706 l 2.05645,2.14648 c 4.52861,4.72685 4.41853,14.28512 -0.2179,18.92156 l -2.20469,2.20469 h -31.08998 -31.08997 v 21.72121 21.72121 h 16.7037 c 12.6813,0 17.33913,0.2655 19.34242,1.10252 6.16858,2.5774 7.45706,13.49455 2.17845,18.45771 -1.83642,1.72667 -2.36162,1.77953 -20.05519,2.01862 l -18.16938,0.24553 v 30.25396 c 0,19.33834 -0.28926,30.79443 -0.8017,31.75195 -1.79774,3.3591 -10.47998,5.84863 -16.26497,4.66378 z"
     style="fill:#ffffff;stroke:#1be410;stroke-width:0" />
</svg>
