<?xml version="1.0" encoding="UTF-8" standalone="no"?>
<svg
   xmlns:dc="http://purl.org/dc/elements/1.1/"
   xmlns:cc="http://creativecommons.org/ns#"
   xmlns:rdf="http://www.w3.org/1999/02/22-rdf-syntax-ns#"
   xmlns:svg="http://www.w3.org/2000/svg"
   xmlns="http://www.w3.org/2000/svg"
   xmlns:sodipodi="http://sodipodi.sourceforge.net/DTD/sodipodi-0.dtd"
   xmlns:inkscape="http://www.inkscape.org/namespaces/inkscape"
   inkscape:version="1.0 (4035a4fb49, 2020-05-01)"
   sodipodi:docname="poll.svg"
   id="svg10"
   version="1.1"
   width="480pt"
   viewBox="0 0 480 480"
   height="480pt">
  <metadata
     id="metadata16">
    <rdf:RDF>
      <cc:Work
         rdf:about="">
        <dc:format>image/svg+xml</dc:format>
        <dc:type
           rdf:resource="http://purl.org/dc/dcmitype/StillImage" />
      </cc:Work>
    </rdf:RDF>
  </metadata>
  <defs
     id="defs14" />
  <sodipodi:namedview
     inkscape:current-layer="svg10"
     inkscape:window-maximized="1"
     inkscape:window-y="-9"
     inkscape:window-x="-9"
     inkscape:cy="318.54545"
     inkscape:cx="320"
     inkscape:zoom="1.375"
     showgrid="false"
     id="namedview12"
     inkscape:window-height="1051"
     inkscape:window-width="1920"
     inkscape:pageshadow="2"
     inkscape:pageopacity="0"
     guidetolerance="10"
     gridtolerance="10"
     objecttolerance="10"
     borderopacity="1"
     bordercolor="#666666"
     pagecolor="#ffffff" />
  <path
     id="path2"
     d="m440 0h-400c-22.082031.0273438-39.9726562 17.917969-40 40v400c.0273438 22.082031 17.917969 39.972656 40 40h400c22.082031-.027344 39.972656-17.917969 40-40v-400c-.027344-22.082031-17.917969-39.9726562-40-40zm24 440c0 13.253906-10.746094 24-24 24h-400c-13.253906 0-24-10.746094-24-24v-400c0-13.253906 10.746094-24 24-24h400c13.253906 0 24 10.746094 24 24zm0 0" />
  <path
     id="path4"
     d="m136 176h-80c-4.417969 0-8 3.582031-8 8v240c0 4.417969 3.582031 8 8 8h80c4.417969 0 8-3.582031 8-8v-240c0-4.417969-3.582031-8-8-8zm-8 240h-64v-224h64zm0 0" />
  <path
     id="path6"
     d="m280 48h-80c-4.417969 0-8 3.582031-8 8v368c0 4.417969 3.582031 8 8 8h80c4.417969 0 8-3.582031 8-8v-368c0-4.417969-3.582031-8-8-8zm-8 368h-64v-352h64zm0 0" />
  <path
     id="path8"
     d="m424 256h-80c-4.417969 0-8 3.582031-8 8v160c0 4.417969 3.582031 8 8 8h80c4.417969 0 8-3.582031 8-8v-160c0-4.417969-3.582031-8-8-8zm-8 160h-64v-144h64zm0 0" />
  <path
     transform="scale(0.75)"
     id="path841"
     d="M 48,639.26298 C 24.839471,636.76105 6.2503193,619.8333 1.5212159,596.93825 0.47470764,591.87178 0.36363636,565.29919 0.36363636,320 0.36363636,74.700815 0.47470764,48.128221 1.5212159,43.061751 5.7386259,22.643962 20.936282,6.9503731 41.650926,1.6225202 46.249459,0.4397672 63.08258,0.36363636 320,0.36363636 c 256.91742,0 273.75054,0.0761308 278.34908,1.25888384 20.71464,5.3278529 35.91229,21.0214418 40.12971,41.4392308 1.0465,5.06647 1.15757,31.639064 1.15757,276.938249 0,244.9071 -0.11236,271.88002 -1.15368,276.93975 -4.15028,20.16598 -19.10903,35.74774 -39.76086,41.41686 -4.24608,1.16559 -22.05532,1.25307 -275.08546,1.3513 C 174.83636,639.76565 50.8,639.56545 48,639.26298 Z m 547.32255,-21.52502 c 5.95445,-1.76536 9.28134,-3.69909 13.83227,-8.03995 4.9225,-4.69526 8.25672,-11.0128 9.34053,-17.69801 1.07404,-6.62494 1.07404,-537.375064 0,-544 -1.08381,-6.685204 -4.41803,-13.002745 -9.34053,-17.698012 C 604.60389,25.961137 601.277,24.0274 595.32255,22.262044 591.72187,21.194529 567.36177,21.090909 320,21.090909 c -247.361775,0 -271.721868,0.10362 -275.322545,1.171135 C 38.722994,24.0274 35.396106,25.961137 30.845178,30.301988 25.922681,34.997255 22.588455,41.314796 21.504647,48 c -1.065506,6.572319 -1.074808,537.37186 -0.0095,543.93736 1.021937,6.29839 3.847694,11.99932 8.266728,16.67801 4.24763,4.49723 8.249115,7.02161 14.091028,8.8895 3.981655,1.27309 14.987682,1.32756 275.833307,1.36511 247.72208,0.0356 272.03461,-0.0642 275.63637,-1.13202 z"
     style="fill:#ffffff;stroke:#1be410;stroke-width:0" />
  <path
     transform="scale(0.75)"
     id="path843"
     d="m 72.49794,575.29153 c -1.326133,-0.31999 -3.239047,-1.35513 -4.250919,-2.3003 -4.159513,-3.88534 -3.883385,8.0299 -3.883385,-167.57247 0,-179.38442 -0.39744,-164.93423 4.635118,-168.52399 l 2.273973,-1.62204 H 128 184.72727 l 2.27397,1.62204 c 5.03271,3.58986 4.63512,-10.88451 4.63512,168.74396 V 567.78489 L 190,570.18921 c -0.9,1.32238 -2.56015,3.08896 -3.68923,3.92574 -2.0367,1.50944 -2.48319,1.52234 -56.72727,1.6399 -30.070925,0.0652 -55.759427,-0.14333 -57.08556,-0.46332 z M 171.27273,405.45455 V 256 H 128 84.727273 V 405.45455 554.90909 H 128 171.27273 Z"
     style="fill:#ffffff;stroke:#1be410;stroke-width:0" />
  <path
     transform="scale(0.75)"
     id="path845"
     d="m 264.49794,575.29153 c -2.72616,-0.65781 -5.59947,-3.0747 -7.1125,-5.98269 -0.87171,-1.67541 -1.0218,-38.32865 -1.0218,-249.52881 V 72.215103 L 258,69.810786 c 0.9,-1.322374 2.56036,-3.088954 3.68969,-3.925733 2.04184,-1.512898 2.36832,-1.521417 58.31031,-1.521417 55.94199,0 56.26847,0.0085 58.31031,1.521417 1.12933,0.836779 2.78969,2.603359 3.68969,3.925733 l 1.63636,2.404317 V 320 567.78489 L 382,570.18921 c -0.9,1.32238 -2.56015,3.08896 -3.68923,3.92574 -2.0367,1.50944 -2.48319,1.52234 -56.72727,1.6399 -30.07092,0.0652 -55.75943,-0.14333 -57.08556,-0.46332 z M 363.27273,320 V 85.090909 H 320 276.72727 V 320 554.90909 H 320 363.27273 Z"
     style="fill:#ffffff;stroke:#1be410;stroke-width:0" />
  <path
     transform="scale(0.75)"
     id="path847"
     d="m 456.49794,575.29153 c -1.32613,-0.31999 -3.23905,-1.35513 -4.25092,-2.3003 -4.13046,-3.8582 -3.88348,3.40881 -3.88225,-114.22784 10e-4,-101.92306 0.0791,-108.73678 1.27272,-111.11253 0.69938,-1.39203 2.38364,-3.27384 3.74279,-4.18182 l 2.47119,-1.65086 H 512 568.14853 l 2.47119,1.65086 c 1.35915,0.90798 3.04341,2.78979 3.74279,4.18182 1.19365,2.37582 1.27166,9.20002 1.27273,111.3325 l 0.001,108.80153 -1.63636,2.40432 c -0.9,1.32238 -2.56016,3.08896 -3.68923,3.92574 -2.03671,1.50944 -2.48319,1.52234 -56.72727,1.6399 -30.07093,0.0652 -55.75943,-0.14333 -57.08556,-0.46332 z M 555.27273,458.54545 V 362.18182 H 512 468.72727 v 96.36363 96.36364 H 512 555.27273 Z"
     style="fill:#ffffff;stroke:#1be410;stroke-width:0" />
</svg>
