<?xml version="1.0" encoding="UTF-8" standalone="no"?>
<svg
   xmlns:dc="http://purl.org/dc/elements/1.1/"
   xmlns:cc="http://creativecommons.org/ns#"
   xmlns:rdf="http://www.w3.org/1999/02/22-rdf-syntax-ns#"
   xmlns:svg="http://www.w3.org/2000/svg"
   xmlns="http://www.w3.org/2000/svg"
   xmlns:sodipodi="http://sodipodi.sourceforge.net/DTD/sodipodi-0.dtd"
   xmlns:inkscape="http://www.inkscape.org/namespaces/inkscape"
   sodipodi:docname="icon-hashtag.svg"
   inkscape:version="1.0 (4035a4fb49, 2020-05-01)"
   id="svg8"
   version="1.1"
   viewBox="0 0 165.4523 150.41408"
   height="150.41408mm"
   width="165.4523mm">
  <defs
     id="defs2" />
  <sodipodi:namedview
     inkscape:window-maximized="1"
     inkscape:window-y="-9"
     inkscape:window-x="-9"
     inkscape:window-height="1051"
     inkscape:window-width="1920"
     showgrid="false"
     inkscape:document-rotation="0"
     inkscape:current-layer="layer1"
     inkscape:document-units="mm"
     inkscape:cy="324.24708"
     inkscape:cx="269.80864"
     inkscape:zoom="0.35"
     inkscape:pageshadow="2"
     inkscape:pageopacity="0.0"
     borderopacity="1.0"
     bordercolor="#666666"
     pagecolor="#ffffff"
     id="base" />
  <metadata
     id="metadata5">
    <rdf:RDF>
      <cc:Work
         rdf:about="">
        <dc:format>image/svg+xml</dc:format>
        <dc:type
           rdf:resource="http://purl.org/dc/dcmitype/StillImage" />
        <dc:title></dc:title>
      </cc:Work>
    </rdf:RDF>
  </metadata>
  <g
     transform="translate(-34.446464,-60.864389)"
     id="layer1"
     inkscape:groupmode="layer"
     inkscape:label="Layer 1">
    <path
       style="stroke-width:0.352527"
       d="m 192.37865,98.469755 h -22.84817 l 7.54353,-28.134701 c 1.07549,-4.00862 -1.30132,-8.137044 -5.31682,-9.212527 -4.01551,-1.075484 -8.14531,1.308206 -9.21253,5.316826 l -8.58046,32.030402 h -53.412 l 7.54353,-28.134701 c 1.07549,-4.00862 -1.30132,-8.137044 -5.31682,-9.212527 -4.016885,-1.067221 -8.137047,1.308206 -9.205645,5.316826 l -8.58872,32.030402 H 57.008206 c -4.151834,0 -7.520122,3.361405 -7.520122,7.520125 0,4.16009 3.368288,7.5215 7.520122,7.5215 H 80.94563 L 68.845409,158.63486 H 41.966586 c -4.150457,0 -7.520122,3.3614 -7.520122,7.52012 0,4.15872 3.369665,7.52012 7.520122,7.52012 h 22.84817 l -7.543532,28.13471 c -1.075483,4.00862 1.301321,8.13704 5.316827,9.21252 0.647217,0.17351 1.301321,0.25614 1.940276,0.25614 3.317337,0 6.363392,-2.21156 7.258481,-5.57296 l 8.595605,-32.03041 h 53.410627 l -7.54353,28.13471 c -1.07411,4.00862 1.30132,8.13704 5.3182,9.21252 0.64584,0.17351 1.29995,0.25614 1.94716,0.25614 3.31734,0 6.36201,-2.21156 7.2571,-5.57296 l 8.58872,-32.03041 h 27.97634 c 4.15184,0 7.5215,-3.3614 7.5215,-7.52012 0,-4.15872 -3.36966,-7.52012 -7.5215,-7.52012 h -23.93742 l 12.10022,-45.12348 h 26.87882 c 4.15184,0 7.52012,-3.36141 7.52012,-7.5215 0,-4.15872 -3.36828,-7.520125 -7.52012,-7.520125 z M 137.82369,158.63486 H 84.413066 l 12.100221,-45.12348 h 53.412003 z m 0,0"
       id="path833" />
    <path
       transform="matrix(0.26458333,0,0,0.26458333,34.446464,60.864389)"
       id="path844"
       d="m 98.552009,561.01474 c -14.002923,-11.01472 -13.92712,-14.8272 1.451801,-73.019 7.81258,-29.56178 14.9085,-55.99866 15.76872,-58.74866 1.44739,-4.62709 -2.05655,-5 -46.98071,-5 -48.057119,0 -48.633051,-0.0743 -57.335393,-7.39683 -13.5179325,-11.3746 -11.73759077,-33.1612 3.417694,-41.8234 4.27375,-2.44271 24.545733,-4.106 61.738368,-5.06549 l 55.375281,-1.42857 22.35078,-82.85714 c 12.29293,-45.57143 22.40977,-83.82143 22.48186,-85 0.0721,-1.17857 -21.14705,-2.14286 -47.15366,-2.14286 -49.96947,0 -60.551087,-2.234 -66.91627,-14.12745 -5.471149,-10.22294 -3.475429,-24.55974 4.533674,-32.56884 l 7.475512,-7.47551 58.899434,-0.77124 58.89943,-0.77124 17.19648,-63.870069 c 14.96012,-55.563895 18.23901,-64.76014 25.21296,-70.7142851 4.61672,-3.9416197 11.6772,-6.8442208 16.64835,-6.8442208 11.76315,0 25.33518,13.6387349 25.33518,25.4597139 0,4.816029 -6.42857,32.447943 -14.28572,61.404255 -7.85714,28.956306 -14.28571,53.400536 -14.28571,54.320506 0,0.91997 46.01617,1.67267 102.25817,1.67267 h 102.2582 l 16.91577,-63.571431 c 18.60697,-69.927164 23.46534,-79.2857139 41.16014,-79.2857139 13.15966,0 27.23106,13.6979779 26.78172,26.0709919 -0.27143,7.471828 -18.34657,78.998643 -28.24897,111.786153 -1.39683,4.62497 2.13105,5 47.03465,5 48.05712,0 48.63306,0.0743 57.33538,7.39684 13.51794,11.37459 11.7376,33.16119 -3.41769,41.82339 -4.27374,2.44272 -24.54571,4.10599 -61.73837,5.06548 l -55.37526,1.42857 -22.3508,82.85715 c -12.29291,45.57143 -22.40977,83.82143 -22.48186,85 -0.072,1.17857 21.14706,2.14285 47.15366,2.14285 49.96949,0 60.55109,2.234 66.91629,14.12746 5.47114,10.22294 3.47543,24.55974 -4.53369,32.56883 l -7.47551,7.47551 -58.89943,0.77126 -58.89943,0.77123 -17.19649,63.87006 c -14.96011,55.56391 -18.239,64.76014 -25.21294,70.71428 -4.61674,3.94163 -11.67723,6.84423 -16.64837,6.84423 -11.66134,0 -25.33517,-13.64251 -25.33517,-25.2772 0,-4.71563 6.42857,-32.30386 14.28571,-61.30717 7.85715,-29.00329 14.28572,-53.52966 14.28572,-54.50303 0,-0.97334 -46.01617,-1.76974 -102.25818,-1.76974 H 172.43514 l -16.91578,63.57143 c -13.947,52.4144 -18.27578,64.95037 -24.6649,71.42857 -9.47609,9.6082 -21.49845,10.26608 -32.302451,1.76766 z M 414.6455,287.10422 c 12.11111,-44.78571 22.08451,-83.05195 22.16311,-85.03609 0.11314,-2.85407 -21.186,-3.4508 -101.97971,-2.85714 l -102.12261,0.75037 -22.02022,81.42858 c -12.11112,44.78571 -22.08452,83.05194 -22.16311,85.03608 -0.11306,2.85409 21.18599,3.4508 101.97971,2.85714 l 102.1226,-0.75037 z"
       style="fill:#ffffff;stroke:#1be410;stroke-width:0" />
  </g>
</svg>
