<?xml version="1.0" encoding="UTF-8" standalone="no"?>
<svg
   xmlns:dc="http://purl.org/dc/elements/1.1/"
   xmlns:cc="http://creativecommons.org/ns#"
   xmlns:rdf="http://www.w3.org/1999/02/22-rdf-syntax-ns#"
   xmlns:svg="http://www.w3.org/2000/svg"
   xmlns="http://www.w3.org/2000/svg"
   xmlns:sodipodi="http://sodipodi.sourceforge.net/DTD/sodipodi-0.dtd"
   xmlns:inkscape="http://www.inkscape.org/namespaces/inkscape"
   inkscape:version="1.0 (4035a4fb49, 2020-05-01)"
   sodipodi:docname="icon-messages.svg"
   xml:space="preserve"
   style="enable-background:new 0 0 32 32;"
   viewBox="0 0 32 32"
   y="0px"
   x="0px"
   id="Icons"
   version="1.1"><metadata
   id="metadata13"><rdf:RDF><cc:Work
       rdf:about=""><dc:format>image/svg+xml</dc:format><dc:type
         rdf:resource="http://purl.org/dc/dcmitype/StillImage" /></cc:Work></rdf:RDF></metadata><defs
   id="defs11" /><sodipodi:namedview
   inkscape:current-layer="Icons"
   inkscape:window-maximized="1"
   inkscape:window-y="-9"
   inkscape:window-x="-9"
   inkscape:cy="15.927273"
   inkscape:cx="16"
   inkscape:zoom="27.5"
   showgrid="false"
   id="namedview9"
   inkscape:window-height="1051"
   inkscape:window-width="1920"
   inkscape:pageshadow="2"
   inkscape:pageopacity="0"
   guidetolerance="10"
   gridtolerance="10"
   objecttolerance="10"
   borderopacity="1"
   bordercolor="#666666"
   pagecolor="#ffffff" />
<style
   id="style2"
   type="text/css">
	.st0{fill:none;stroke:#000000;stroke-width:2;stroke-linecap:round;stroke-linejoin:round;stroke-miterlimit:10;}
	.st1{fill:none;stroke:#000000;stroke-width:2;stroke-linejoin:round;stroke-miterlimit:10;}
</style>
<path
   id="path4"
   d="M25,27H7c-2.2,0-4-1.8-4-4V9c0-2.2,1.8-4,4-4h18c2.2,0,4,1.8,4,4v14C29,25.2,27.2,27,25,27z"
   class="st0" />
<polyline
   id="polyline6"
   points="3,10 16,18 29,10 "
   class="st0" />
<path
   id="path838"
   d="m 6.6132276,27.961263 c -0.9225487,-0.07105 -1.8482784,-0.425172 -2.6141215,-1 C 3.6624045,26.70854 3.1386748,26.160626 2.8979104,25.809216 2.6478187,25.444193 2.3369462,24.793032 2.2218516,24.393127 2.0105549,23.65896 2.0181818,23.97326 2.0181818,16 c 0,-7.9724949 -0.00762,-7.6582218 0.2035045,-8.3931265 C 2.3440303,7.1810053 2.6850363,6.4885756 2.9640922,6.0993813 3.2452524,5.7072521 3.83085,5.1379496 4.2189309,4.8794602 4.8157643,4.4819269 5.4940737,4.2102456 6.2017364,4.0852932 6.5646971,4.0212049 7.0060633,4.0181818 16,4.0181818 c 8.993937,0 9.435303,0.00302 9.798264,0.067111 1.007827,0.1779528 1.887022,0.6197084 2.612422,1.3126241 0.462302,0.4415999 0.766975,0.855819 1.044655,1.4202645 0.256404,0.5211975 0.388705,0.9395742 0.471464,1.4909091 0.08217,0.5474149 0.08217,14.8344035 0,15.3818185 -0.156711,1.043998 -0.610921,1.972572 -1.335741,2.730746 -0.886321,0.927108 -1.975966,1.441232 -3.267372,1.541634 -0.541535,0.0421 -18.1622171,0.04019 -18.7104644,-0.002 z M 25.661067,25.941492 c 1.093754,-0.248769 1.950527,-1.077469 2.270429,-2.196037 0.06443,-0.225302 0.06808,-0.510979 0.07779,-6.104139 0.0082,-4.72646 0.0012,-5.864304 -0.03591,-5.849931 -0.02535,0.0098 -2.631555,1.610099 -5.791555,3.55619 -4.441712,2.735434 -5.792513,3.551011 -5.952835,3.59416 -0.414594,0.111584 -0.03516,0.324492 -6.3781328,-3.578942 -3.1733186,-1.952845 -5.792317,-3.559317 -5.8199966,-3.569939 -0.042757,-0.01641 -0.048794,0.863209 -0.040137,5.848462 0.00971,5.59316 0.013353,5.878837 0.077788,6.104139 0.3157135,1.103923 1.1363529,1.910723 2.2224048,2.184925 0.2399894,0.06059 0.7937418,0.06442 9.6837306,0.06694 8.540663,0.0024 9.453425,-0.0028 9.686427,-0.05583 z M 22.018182,13.150889 28,9.4677018 27.997575,8.9974873 C 27.994815,8.4626585 27.935748,8.1746084 27.742024,7.7512625 27.356725,6.9092692 26.602636,6.2858465 25.709091,6.07059 25.425701,6.002321 25.174739,6.0005095 16,6.0005095 c -9.1747393,0 -9.4257015,0.00181 -9.7090909,0.070081 C 5.397364,6.2858465 4.6432753,6.9092692 4.2579764,7.7512625 4.0643684,8.1743542 4.0051848,8.462736 4.0024256,8.996476 L 4,9.4656796 9.9818182,13.149236 C 13.271818,15.175191 15.98,16.833081 16,16.833434 c 0.02,3.63e-4 2.728182,-1.656792 6.018182,-3.682545 z"
   style="fill:#ffffff;stroke:#1be410;stroke-width:0" /></svg>
