<?xml version="1.0" encoding="UTF-8" standalone="no"?>
<svg
   xmlns:dc="http://purl.org/dc/elements/1.1/"
   xmlns:cc="http://creativecommons.org/ns#"
   xmlns:rdf="http://www.w3.org/1999/02/22-rdf-syntax-ns#"
   xmlns:svg="http://www.w3.org/2000/svg"
   xmlns="http://www.w3.org/2000/svg"
   xmlns:sodipodi="http://sodipodi.sourceforge.net/DTD/sodipodi-0.dtd"
   xmlns:inkscape="http://www.inkscape.org/namespaces/inkscape"
   inkscape:version="1.0 (4035a4fb49, 2020-05-01)"
   sodipodi:docname="icon-notifications.svg"
   xml:space="preserve"
   style="enable-background:new 0 0 32 32;"
   viewBox="0 0 32 32"
   y="0px"
   x="0px"
   id="Icons"
   version="1.1"><metadata
   id="metadata13"><rdf:RDF><cc:Work
       rdf:about=""><dc:format>image/svg+xml</dc:format><dc:type
         rdf:resource="http://purl.org/dc/dcmitype/StillImage" /></cc:Work></rdf:RDF></metadata><defs
   id="defs11" /><sodipodi:namedview
   inkscape:current-layer="Icons"
   inkscape:window-maximized="1"
   inkscape:window-y="-9"
   inkscape:window-x="-9"
   inkscape:cy="15.927273"
   inkscape:cx="16"
   inkscape:zoom="27.5"
   showgrid="false"
   id="namedview9"
   inkscape:window-height="1051"
   inkscape:window-width="1920"
   inkscape:pageshadow="2"
   inkscape:pageopacity="0"
   guidetolerance="10"
   gridtolerance="10"
   objecttolerance="10"
   borderopacity="1"
   bordercolor="#666666"
   pagecolor="#ffffff" />
<style
   id="style2"
   type="text/css">
	.st0{fill:none;stroke:#000000;stroke-width:2;stroke-linecap:round;stroke-linejoin:round;stroke-miterlimit:10;}
</style>
<path
   id="path4"
   d="M27.8,23.2l-1.1-1.7c-1.9-2.8-2.9-6.1-2.9-9.5c0-3.6-2.4-6.5-5.6-7.5C17.9,3.6,17,3,16,3s-1.9,0.6-2.2,1.5  c-3.2,1-5.6,3.9-5.6,7.5c0,3.4-1,6.7-2.9,9.5l-1.1,1.7C3.7,24,4.2,25,5.2,25h21.6C27.8,25,28.3,24,27.8,23.2z"
   class="st0" />
<path
   id="path6"
   d="M20,25c0,2.2-1.8,4-4,4s-4-1.8-4-4"
   class="st0" />
<path
   id="path838"
   d="m 15.636364,29.958243 c -1.503217,-0.09746 -2.942385,-0.942424 -3.785884,-2.222775 -0.301933,-0.458306 -0.511343,-0.945835 -0.725045,-1.687984 -0.0095,-0.03309 -0.759408,-0.04665 -3.1507877,-0.05697 C 4.4789377,25.975431 4.6685589,25.98888 4.1545516,25.719589 3.1392325,25.187661 2.7394094,23.92957 3.2587341,22.900793 3.3181803,22.783031 3.726374,22.1318 4.1658313,21.453613 4.6052886,20.775427 5.0638469,20.044105 5.1848499,19.828455 6.2354351,17.956112 6.8973865,15.863016 7.1276338,13.685357 7.1590305,13.388411 7.1994116,12.695455 7.2173698,12.145455 7.2568404,10.936608 7.3331905,10.372792 7.5684796,9.5526484 8.1402058,7.5597913 9.4728578,5.7831749 11.265098,4.6245256 11.678125,4.3575113 12.382416,3.9871893 12.8,3.8174616 c 0.280823,-0.1141409 0.296583,-0.1270355 0.454545,-0.3718945 0.313993,-0.4867222 0.898657,-0.9485312 1.506632,-1.1900449 0.755218,-0.3000046 1.722428,-0.3000046 2.477646,0 0.607975,0.2415137 1.192639,0.7033227 1.506632,1.1900449 0.157962,0.244859 0.173722,0.2577536 0.454545,0.3718945 1.117049,0.4540269 2.361723,1.3004682 3.170583,2.1561566 0.950919,1.0059731 1.691946,2.2928422 2.060937,3.5790302 0.236623,0.8247906 0.308319,1.3564546 0.349723,2.5933586 0.01909,0.570304 0.06076,1.27394 0.0926,1.563636 0.240967,2.192253 0.893367,4.248259 1.941587,6.118812 0.120846,0.21565 0.579276,0.946972 1.018734,1.625158 0.439457,0.678187 0.847651,1.329418 0.907097,1.44718 0.14985,0.296851 0.222465,0.604822 0.221833,0.940819 -0.0015,0.818103 -0.412423,1.508507 -1.117651,1.877977 -0.514007,0.26929 -0.324386,0.255842 -3.820095,0.270927 -2.39138,0.01032 -3.14126,0.02388 -3.150788,0.05697 -0.276227,0.959288 -0.534089,1.483678 -1.03698,2.108808 -0.675255,0.83939 -1.745844,1.490248 -2.82543,1.717702 -0.377616,0.07956 -0.92814,0.113271 -1.375791,0.08425 z m 1.236363,-2.066298 c 0.802422,-0.255416 1.443157,-0.799413 1.821498,-1.54649 l 0.16574,-0.327273 -1.418187,-0.0095 c -0.780002,-0.0052 -2.06619,-0.0052 -2.858194,0 l -1.440008,0.0095 0.14134,0.290909 c 0.406181,0.836013 1.209438,1.463169 2.117818,1.653521 0.0885,0.01854 0.398175,0.02846 0.688175,0.02204 0.421799,-0.0093 0.578191,-0.02789 0.781818,-0.0927 z m 10.108655,-4.0374 C 26.981018,23.750792 26.839083,23.508883 26.213253,22.545455 25.318882,21.168623 24.984724,20.60061 24.598118,19.8 23.703378,17.947108 23.122916,15.888909 22.9111,13.818182 22.87939,13.508182 22.83816,12.796364 22.81947,12.236364 22.777588,10.981256 22.708741,10.539533 22.428405,9.7272727 22.103055,8.7845829 21.562418,7.937876 20.802491,7.18088 20.023182,6.4045767 19.076263,5.8223004 18.030051,5.4760605 17.628909,5.3433041 17.450711,5.1840445 17.262715,4.790274 17.098909,4.447171 16.917513,4.2608383 16.604364,4.114006 16.422381,4.0286761 16.356194,4.0181818 16,4.0181818 c -0.356194,0 -0.422381,0.010494 -0.604364,0.095824 -0.313149,0.1468323 -0.494545,0.333165 -0.658351,0.676268 -0.197817,0.4143401 -0.352902,0.5443236 -0.855629,0.7171387 -1.300563,0.4470746 -2.501013,1.3097589 -3.316705,2.3834964 -0.9205503,1.2117687 -1.3831328,2.6210741 -1.3831328,4.2138561 0,2.573228 -0.6375233,5.329445 -1.7799364,7.695235 -0.3847163,0.796699 -0.7178767,1.363683 -1.6132311,2.745455 -0.4211842,0.65 -0.7727886,1.218363 -0.7813432,1.263029 -0.00855,0.04467 -0.00602,0.106057 0.00563,0.136424 0.018892,0.04923 1.2096449,0.05422 10.9950315,0.04606 l 10.973846,-0.0092 z"
   style="fill:#ffffff;stroke:#1be410;stroke-width:0" /></svg>
